<svg width="261" height="75" viewBox="0 0 261 75" fill="none" xmlns="http://www.w3.org/2000/svg">
<g clip-path="url(#clip0_67_2)">
<path d="M31.5859 63.1429C45.9453 63.1429 57.5859 51.5023 57.5859 37.1429C57.5859 22.7834 45.9453 11.1429 31.5859 11.1429C17.2265 11.1429 5.58594 22.7834 5.58594 37.1429C5.58594 51.5023 17.2265 63.1429 31.5859 63.1429Z" fill="#003049"/>
<path d="M22.7839 49.3429C22.5363 49.3429 22.3382 49.2809 22.1896 49.1571C22.0658 49.0581 22.0039 48.9343 22.0039 48.7857C22.0039 48.4143 22.2763 48.1543 22.821 48.0057C23.663 47.7829 24.2572 47.5229 24.6039 47.2257C24.9753 46.9286 25.161 46.3838 25.161 45.5914V28.6914C25.161 27.899 25.0001 27.3295 24.6782 26.9829C24.3563 26.6362 23.7496 26.3638 22.8582 26.1657C22.5363 26.0914 22.3134 25.9924 22.1896 25.8686C22.0658 25.72 22.0039 25.559 22.0039 25.3857C22.0039 25.2371 22.0782 25.1133 22.2268 25.0143C22.3753 24.8905 22.5734 24.8286 22.821 24.8286C23.4401 24.8286 24.0715 24.8409 24.7153 24.8657C25.3591 24.8905 25.9906 24.9276 26.6096 24.9771C27.2287 25.0019 27.823 25.0143 28.3925 25.0143C29.6801 25.0143 31.0544 25.0019 32.5153 24.9771C33.9763 24.9524 35.2763 24.9276 36.4153 24.9029C37.2077 24.9029 37.8639 24.8657 38.3839 24.7914C38.9039 24.6924 39.2134 24.6429 39.3125 24.6429C39.4858 24.6429 39.6715 24.7048 39.8696 24.8286C40.0925 24.9276 40.2163 25.1009 40.241 25.3486C40.3401 26.24 40.4639 27.1067 40.6125 27.9486C40.761 28.7905 40.8353 29.5333 40.8353 30.1771C40.8353 30.4 40.7858 30.5733 40.6868 30.6971C40.5877 30.8209 40.4763 30.8829 40.3525 30.8829C40.2287 30.8829 40.0925 30.8333 39.9439 30.7343C39.8201 30.6352 39.721 30.4867 39.6468 30.2886C39.3991 29.6695 39.1763 29.1371 38.9782 28.6914C38.7801 28.2457 38.5572 27.8867 38.3096 27.6143C38.0125 27.3419 37.6534 27.0819 37.2325 26.8343C36.8115 26.5867 36.2791 26.4629 35.6353 26.4629H32.8496C32.3049 26.4629 31.8344 26.6114 31.4382 26.9086C31.042 27.1809 30.8439 27.5771 30.8439 28.0971V35.1171C30.8439 35.4143 30.9306 35.6371 31.1039 35.7857C31.2772 35.9343 31.5001 36.0086 31.7725 36.0086H35.041C35.6849 36.0086 36.143 35.7981 36.4153 35.3771C36.7125 34.9314 36.9725 34.399 37.1953 33.78C37.3687 33.3095 37.6163 33.0743 37.9382 33.0743C38.062 33.0743 38.1734 33.1486 38.2725 33.2971C38.3715 33.4209 38.4087 33.619 38.3839 33.8914C38.3591 34.1886 38.3344 34.5105 38.3096 34.8571C38.2849 35.2038 38.2601 35.5505 38.2353 35.8971C38.2353 36.2438 38.2353 36.5781 38.2353 36.9C38.2353 37.1971 38.2353 37.519 38.2353 37.8657C38.2601 38.2124 38.2725 38.559 38.2725 38.9057C38.2972 39.2524 38.322 39.5867 38.3468 39.9086C38.3963 40.2552 38.3839 40.5152 38.3096 40.6886C38.2353 40.8371 38.1239 40.9114 37.9753 40.9114C37.5791 40.9114 37.2944 40.5895 37.121 39.9457C36.8982 39.2029 36.6506 38.6333 36.3782 38.2371C36.1058 37.8409 35.722 37.6429 35.2268 37.6429H31.7725C31.4753 37.6429 31.2401 37.7171 31.0668 37.8657C30.9182 37.9895 30.8439 38.2 30.8439 38.4971V45.5543C30.8439 46.2971 31.0049 46.8171 31.3268 47.1143C31.6487 47.4114 32.1439 47.56 32.8125 47.56H36.0068C36.5515 47.56 37.0715 47.4981 37.5668 47.3743C38.062 47.2505 38.483 47.04 38.8296 46.7429C39.2506 46.3962 39.6344 45.9629 39.981 45.4429C40.3277 44.9229 40.6496 44.3657 40.9468 43.7714C41.0458 43.5981 41.1449 43.4867 41.2439 43.4371C41.3677 43.3629 41.5039 43.3257 41.6525 43.3257C41.7763 43.3257 41.863 43.4 41.9125 43.5486C41.9868 43.6971 42.0239 43.8581 42.0239 44.0314C42.0239 44.4524 41.962 44.9229 41.8382 45.4429C41.7144 45.9629 41.5534 46.52 41.3553 47.1143C41.182 47.6838 41.0087 48.2533 40.8353 48.8229C40.7858 48.9962 40.6744 49.12 40.501 49.1943C40.3525 49.2686 40.1915 49.3057 40.0182 49.3057C39.6963 49.3057 39.0896 49.2933 38.1982 49.2686C37.3315 49.2686 36.3039 49.2562 35.1153 49.2314C33.9268 49.2067 32.701 49.1819 31.4382 49.1571C30.1753 49.1571 28.9991 49.1571 27.9096 49.1571C27.4144 49.1571 26.8696 49.1695 26.2753 49.1943C25.681 49.219 25.0744 49.2438 24.4553 49.2686C23.861 49.3181 23.3039 49.3429 22.7839 49.3429Z" fill="#FDF0D5"/>
<path d="M44.5859 20.2143C46.5189 20.2143 48.0859 18.6473 48.0859 16.7143C48.0859 14.7813 46.5189 13.2143 44.5859 13.2143C42.6529 13.2143 41.0859 14.7813 41.0859 16.7143C41.0859 18.6473 42.6529 20.2143 44.5859 20.2143Z" fill="#C1121F"/>
<path d="M71.5719 36.2636C71.4109 36.2636 71.2822 36.2233 71.1856 36.1429C71.1051 36.0785 71.0649 35.998 71.0649 35.9014C71.0649 35.66 71.2419 35.491 71.596 35.3944C72.1433 35.2496 72.5296 35.0806 72.7549 34.8874C72.9963 34.6943 73.117 34.3402 73.117 33.8251V22.8401C73.117 22.3251 73.0124 21.9549 72.8032 21.7296C72.5939 21.5042 72.1996 21.3272 71.6202 21.1984C71.4109 21.1501 71.2661 21.0858 71.1856 21.0053C71.1051 20.9087 71.0649 20.8041 71.0649 20.6914C71.0649 20.5949 71.1132 20.5144 71.2097 20.45C71.3063 20.3695 71.4351 20.3293 71.596 20.3293C71.9984 20.3293 72.4088 20.3373 72.8273 20.3534C73.2458 20.3695 73.6562 20.3937 74.0586 20.4259C74.461 20.4419 74.8473 20.45 75.2175 20.45C76.0544 20.45 76.9477 20.4419 77.8973 20.4259C78.8469 20.4098 79.6919 20.3937 80.4323 20.3776C80.9474 20.3776 81.3739 20.3534 81.7119 20.3051C82.0499 20.2408 82.2511 20.2086 82.3155 20.2086C82.4281 20.2086 82.5488 20.2488 82.6776 20.3293C82.8225 20.3937 82.9029 20.5063 82.919 20.6673C82.9834 21.2467 83.0639 21.81 83.1605 22.3573C83.257 22.9045 83.3053 23.3874 83.3053 23.8059C83.3053 23.9507 83.2731 24.0634 83.2087 24.1439C83.1444 24.2243 83.0719 24.2646 82.9915 24.2646C82.911 24.2646 82.8225 24.2324 82.7259 24.168C82.6454 24.1036 82.581 24.007 82.5327 23.8783C82.3718 23.4759 82.2269 23.1299 82.0982 22.8401C81.9694 22.5504 81.8246 22.317 81.6636 22.14C81.4705 21.9629 81.2371 21.7939 80.9635 21.633C80.6898 21.472 80.3438 21.3916 79.9253 21.3916H78.1146C77.7605 21.3916 77.4547 21.4881 77.1972 21.6813C76.9397 21.8583 76.8109 22.1159 76.8109 22.4539V27.0169C76.8109 27.21 76.8672 27.3549 76.9799 27.4514C77.0926 27.548 77.2374 27.5963 77.4145 27.5963H79.539C79.9575 27.5963 80.2553 27.4595 80.4323 27.1859C80.6255 26.8961 80.7945 26.5501 80.9393 26.1477C81.052 25.8419 81.2129 25.689 81.4222 25.689C81.5027 25.689 81.5751 25.7373 81.6395 25.8339C81.7038 25.9143 81.728 26.0431 81.7119 26.2201C81.6958 26.4133 81.6797 26.6225 81.6636 26.8479C81.6475 27.0732 81.6314 27.2985 81.6153 27.5239C81.6153 27.7492 81.6153 27.9665 81.6153 28.1757C81.6153 28.3689 81.6153 28.5781 81.6153 28.8034C81.6314 29.0288 81.6395 29.2541 81.6395 29.4794C81.6556 29.7048 81.6717 29.922 81.6877 30.1313C81.7199 30.3566 81.7119 30.5256 81.6636 30.6383C81.6153 30.7349 81.5429 30.7831 81.4463 30.7831C81.1888 30.7831 81.0037 30.5739 80.891 30.1554C80.7462 29.6726 80.5852 29.3024 80.4082 29.0449C80.2311 28.7873 79.9817 28.6586 79.6597 28.6586H77.4145C77.2213 28.6586 77.0684 28.7069 76.9557 28.8034C76.8592 28.8839 76.8109 29.0207 76.8109 29.2139V33.801C76.8109 34.2839 76.9155 34.6219 77.1247 34.815C77.334 35.0081 77.6559 35.1047 78.0905 35.1047H80.1667C80.5208 35.1047 80.8588 35.0645 81.1807 34.984C81.5027 34.9035 81.7763 34.7667 82.0016 34.5736C82.2752 34.3482 82.5247 34.0666 82.75 33.7286C82.9754 33.3906 83.1846 33.0284 83.3777 32.6421C83.4421 32.5295 83.5065 32.457 83.5709 32.4249C83.6514 32.3766 83.7399 32.3524 83.8365 32.3524C83.9169 32.3524 83.9733 32.4007 84.0055 32.4973C84.0537 32.5939 84.0779 32.6985 84.0779 32.8111C84.0779 33.0848 84.0377 33.3906 83.9572 33.7286C83.8767 34.0666 83.7721 34.4287 83.6433 34.815C83.5307 35.1852 83.418 35.5554 83.3053 35.9256C83.2731 36.0382 83.2007 36.1187 83.088 36.167C82.9915 36.2153 82.8868 36.2394 82.7742 36.2394C82.5649 36.2394 82.1706 36.2314 81.5912 36.2153C81.0278 36.2153 80.3599 36.2072 79.5873 36.1911C78.8147 36.175 78.018 36.1589 77.1972 36.1429C76.3763 36.1429 75.6118 36.1429 74.9036 36.1429C74.5817 36.1429 74.2276 36.1509 73.8413 36.167C73.455 36.1831 73.0607 36.1992 72.6583 36.2153C72.272 36.2475 71.9099 36.2636 71.5719 36.2636ZM89.5323 36.6499C89.4357 36.6499 89.3311 36.5452 89.2184 36.336C89.1219 36.1268 89.0092 35.8773 88.8804 35.5876C88.7517 35.2979 88.6149 34.9759 88.47 34.6219C88.3251 34.2517 88.1883 33.9217 88.0596 33.632C87.6572 32.6824 87.2387 31.7569 86.8041 30.8556C86.3696 29.9542 85.943 29.0368 85.5246 28.1033C85.3797 27.7492 85.2107 27.4514 85.0176 27.21C84.8244 26.9525 84.583 26.7754 84.2933 26.6789C84.1323 26.6145 84.0197 26.5501 83.9553 26.4857C83.8909 26.4052 83.8587 26.3006 83.8587 26.1719C83.8587 26.0431 83.9231 25.9626 84.0519 25.9304C84.1967 25.8982 84.3255 25.8821 84.4381 25.8821C84.8244 25.8821 85.1222 25.8982 85.3314 25.9304C85.5568 25.9465 85.774 25.9707 85.9833 26.0029C86.1925 26.0189 86.4742 26.027 86.8283 26.027C87.1663 26.027 87.464 26.0189 87.7216 26.0029C87.9952 25.9707 88.2688 25.9465 88.5424 25.9304C88.8321 25.8982 89.1621 25.8821 89.5323 25.8821C89.645 25.8821 89.7657 25.9063 89.8944 25.9546C90.0393 26.0029 90.1117 26.0833 90.1117 26.196C90.1117 26.3409 90.0554 26.4374 89.9427 26.4857C89.83 26.534 89.7013 26.5903 89.5564 26.6547C89.3955 26.7191 89.2587 26.8398 89.146 27.0169C89.0494 27.1939 89.0011 27.4192 89.0011 27.6929C89.0011 27.8377 89.0011 27.9745 89.0011 28.1033C89.0011 28.2159 89.0333 28.3367 89.0977 28.4654L90.7153 32.449C90.7314 32.449 90.7394 32.449 90.7394 32.449C90.7555 32.449 90.7716 32.449 90.7877 32.449L92.2121 28.6344C92.2765 28.4896 92.3168 28.3528 92.3329 28.224C92.349 28.0952 92.357 27.9745 92.357 27.8619C92.357 27.5721 92.2926 27.3307 92.1639 27.1376C92.0512 26.9283 91.858 26.7754 91.5844 26.6789C91.4396 26.6306 91.3108 26.5823 91.1981 26.534C91.1016 26.4696 91.0533 26.365 91.0533 26.2201C91.0533 26.1075 91.1177 26.027 91.2464 25.9787C91.3752 25.9304 91.4959 25.9063 91.6086 25.9063C92.0431 25.9224 92.365 25.9385 92.5743 25.9546C92.7996 25.9707 93.033 25.9787 93.2744 25.9787C93.5159 25.9787 93.7492 25.9707 93.9746 25.9546C94.1999 25.9385 94.5218 25.9224 94.9403 25.9063C95.053 25.9063 95.1737 25.9224 95.3024 25.9546C95.4473 25.9868 95.5197 26.0672 95.5197 26.196C95.5197 26.4213 95.3668 26.5903 95.061 26.703C94.7713 26.7996 94.4977 26.9847 94.2401 27.2583C93.9987 27.5158 93.7975 27.8297 93.6366 28.1999L91.7534 32.9319C91.7212 33.0445 91.6649 33.1813 91.5844 33.3423C91.52 33.5032 91.4476 33.6722 91.3671 33.8493C91.3028 34.0102 91.2384 34.1631 91.174 34.308C91.1096 34.4529 91.0452 34.5816 90.9809 34.6943C90.9326 34.8069 90.8521 34.992 90.7394 35.2496C90.6268 35.5071 90.5141 35.7646 90.4014 36.0221C90.2888 36.2797 90.1841 36.4889 90.0876 36.6499H89.5323ZM95.877 36.2153C95.5551 36.2153 95.3941 36.1026 95.3941 35.8773C95.3941 35.7485 95.4424 35.6519 95.539 35.5876C95.6355 35.5071 95.7723 35.4427 95.9494 35.3944C96.1908 35.3139 96.4001 35.2254 96.5771 35.1289C96.7702 35.0323 96.8668 34.8069 96.8668 34.4529V22.8643C96.8668 22.4136 96.8105 22.0354 96.6978 21.7296C96.5851 21.4077 96.3276 21.2065 95.9252 21.126C95.7482 21.0938 95.6597 20.9731 95.6597 20.7639C95.6597 20.5546 95.7401 20.4339 95.9011 20.4017C96.3035 20.3212 96.7381 20.2086 97.2048 20.0637C97.6877 19.9028 98.1464 19.7418 98.581 19.5809C99.0155 19.4038 99.3535 19.275 99.595 19.1946C99.7237 19.1463 99.8283 19.1221 99.9088 19.1221C100.005 19.1221 100.07 19.1543 100.102 19.2187C100.134 19.267 100.15 19.3314 100.15 19.4119C100.15 19.5406 100.126 19.7579 100.078 20.0637C100.046 20.3695 100.021 20.7075 100.005 21.0777L100.03 30.1071C100.03 30.3003 100.102 30.3969 100.247 30.3969C100.295 30.3969 100.351 30.3808 100.416 30.3486C100.496 30.3003 100.569 30.252 100.633 30.2037C101.229 29.6887 101.76 29.1656 102.227 28.6344C102.693 28.1033 103.007 27.717 103.168 27.4756C103.232 27.379 103.281 27.2985 103.313 27.2341C103.361 27.1698 103.385 27.1134 103.385 27.0651C103.385 26.9847 103.321 26.9042 103.192 26.8237C103.063 26.7271 102.87 26.6628 102.613 26.6306C102.42 26.5984 102.323 26.5099 102.323 26.365C102.323 26.2201 102.379 26.1316 102.492 26.0994C102.621 26.0511 102.742 26.027 102.854 26.027H104.037C104.327 26.027 104.705 26.0189 105.172 26.0029C105.639 25.9707 106.097 25.9304 106.548 25.8821C106.999 25.8339 107.321 25.8097 107.514 25.8097C107.691 25.8097 107.779 25.8982 107.779 26.0753C107.779 26.204 107.731 26.3167 107.635 26.4133C107.538 26.4938 107.401 26.5501 107.224 26.5823C106.95 26.6467 106.629 26.7593 106.258 26.9203C105.888 27.0812 105.518 27.2663 105.148 27.4756C104.874 27.6204 104.576 27.8055 104.255 28.0309C103.949 28.2401 103.643 28.4654 103.337 28.7069C103.047 28.9483 102.782 29.1817 102.54 29.407C102.46 29.4875 102.42 29.576 102.42 29.6726C102.42 29.7209 102.436 29.7691 102.468 29.8174C102.5 29.8496 102.532 29.8899 102.565 29.9381C102.951 30.4371 103.321 30.928 103.675 31.4109C104.029 31.8937 104.383 32.3605 104.737 32.8111C105.091 33.2457 105.454 33.6803 105.824 34.1149C106.097 34.4046 106.427 34.6701 106.814 34.9116C107.2 35.153 107.522 35.322 107.779 35.4186C107.908 35.4669 108.045 35.5232 108.19 35.5876C108.351 35.6519 108.431 35.7485 108.431 35.8773C108.431 36.1026 108.254 36.2153 107.9 36.2153C106.934 36.2153 105.985 36.1992 105.051 36.167C104.134 36.1509 103.273 36.1429 102.468 36.1429C102.146 36.1429 101.985 36.0302 101.985 35.8049C101.985 35.6761 102.033 35.5795 102.13 35.5151C102.227 35.4508 102.355 35.3864 102.516 35.322C102.661 35.2737 102.758 35.2174 102.806 35.153C102.87 35.0886 102.911 35.0162 102.927 34.9357C102.927 34.8713 102.894 34.7989 102.83 34.7184C102.782 34.6219 102.717 34.5172 102.637 34.4046L100.295 31.1694C100.247 31.1372 100.207 31.1211 100.174 31.1211C100.078 31.1372 100.03 31.1936 100.03 31.2901C100.03 31.5316 100.03 31.781 100.03 32.0386C100.03 32.2961 100.03 32.5456 100.03 32.787C100.03 33.0445 100.03 33.3262 100.03 33.632C100.03 33.9217 100.03 34.2034 100.03 34.477C100.03 34.7506 100.086 34.9518 100.199 35.0806C100.327 35.1932 100.512 35.2898 100.754 35.3703C100.883 35.4186 100.995 35.4829 101.092 35.5634C101.204 35.6278 101.261 35.7244 101.261 35.8531C101.261 35.9658 101.213 36.0543 101.116 36.1187C101.035 36.1831 100.939 36.2153 100.826 36.2153C100.504 36.2153 100.207 36.1992 99.933 36.167C99.6754 36.1509 99.426 36.1348 99.1845 36.1187C98.9431 36.1026 98.6775 36.0946 98.3878 36.0946C98.1142 36.0946 97.8406 36.1026 97.567 36.1187C97.3094 36.1348 97.0439 36.1509 96.7702 36.167C96.4966 36.1992 96.1989 36.2153 95.877 36.2153ZM111.302 36.4809C110.867 36.4809 110.465 36.3762 110.095 36.167C109.724 35.9578 109.427 35.6841 109.201 35.3461C108.992 35.0081 108.888 34.6379 108.888 34.2356C108.888 33.6883 109.057 33.2296 109.395 32.8594C109.749 32.4892 110.264 32.1593 110.94 31.8696L113.088 30.928C113.41 30.7831 113.603 30.6544 113.668 30.5417C113.748 30.429 113.789 30.2198 113.789 29.914L113.813 28.5379C113.829 28.0872 113.748 27.7331 113.571 27.4756C113.394 27.2019 113.129 27.0651 112.775 27.0651C112.565 27.0651 112.356 27.1134 112.147 27.21C111.938 27.2905 111.777 27.387 111.664 27.4997C111.616 27.5641 111.575 27.6446 111.543 27.7411C111.527 27.8216 111.519 27.9101 111.519 28.0067C111.519 28.1033 111.527 28.224 111.543 28.3689C111.559 28.4976 111.567 28.6103 111.567 28.7069C111.567 28.8034 111.439 28.9322 111.181 29.0931C110.924 29.238 110.626 29.3748 110.288 29.5036C109.95 29.6162 109.66 29.6726 109.419 29.6726C109.306 29.6726 109.201 29.6243 109.105 29.5277C109.024 29.4311 108.984 29.3104 108.984 29.1656C108.984 28.908 109.073 28.6586 109.25 28.4171C109.427 28.1596 109.716 27.8699 110.119 27.548C110.537 27.1939 110.996 26.88 111.495 26.6064C111.994 26.3328 112.485 26.1155 112.968 25.9546C113.467 25.7936 113.885 25.7131 114.223 25.7131C115.092 25.7131 115.784 25.9948 116.299 26.5581C116.814 27.1054 117.056 27.8377 117.024 28.7551L116.903 33.632C116.887 34.0022 116.951 34.316 117.096 34.5736C117.241 34.8311 117.418 34.9599 117.627 34.9599C117.933 34.9599 118.199 34.8552 118.424 34.646C118.472 34.5977 118.521 34.5736 118.569 34.5736C118.649 34.5736 118.714 34.5977 118.762 34.646C118.826 34.6943 118.859 34.7587 118.859 34.8391C118.859 35.0323 118.714 35.2818 118.424 35.5876C118.118 35.8773 117.796 36.0946 117.458 36.2394C117.12 36.4004 116.766 36.4809 116.396 36.4809C115.495 36.4809 114.746 36.0221 114.151 35.1047H114.102C113.571 35.5876 113.088 35.9336 112.654 36.1429C112.235 36.3682 111.785 36.4809 111.302 36.4809ZM112.75 34.9116C112.927 34.9116 113.072 34.8874 113.185 34.8391C113.298 34.7748 113.41 34.6782 113.523 34.5494C113.571 34.485 113.611 34.4046 113.644 34.308C113.676 34.1953 113.692 34.0666 113.692 33.9217L113.764 32.1834C113.764 32.0225 113.74 31.9179 113.692 31.8696C113.644 31.8213 113.587 31.7971 113.523 31.7971C113.491 31.7971 113.451 31.8052 113.402 31.8213C113.354 31.8374 113.298 31.8615 113.233 31.8937C112.766 32.119 112.42 32.3524 112.195 32.5939C111.97 32.8192 111.857 33.1894 111.857 33.7044C111.857 34.1712 111.954 34.4931 112.147 34.6701C112.34 34.8311 112.541 34.9116 112.75 34.9116Z" fill="#003049"/>
<path d="M122.088 43.0236C122.008 43.0236 121.944 42.9994 121.895 42.9511C121.831 42.9029 121.807 42.8385 121.823 42.758C121.839 42.6292 121.903 42.5246 122.016 42.4441C122.113 42.3798 122.225 42.3315 122.354 42.2993C122.853 42.1705 123.215 42.0418 123.44 41.913C123.666 41.7842 123.843 41.5267 123.972 41.1404L128.076 28.6103C128.124 28.4493 128.164 28.2964 128.197 28.1516C128.245 28.0067 128.253 27.894 128.221 27.8136C128.188 27.7331 128.076 27.717 127.883 27.7653C127.561 27.8458 127.279 27.9262 127.038 28.0067C126.812 28.0872 126.515 28.1918 126.144 28.3206C126.016 28.3689 125.879 28.3849 125.734 28.3689C125.605 28.3528 125.541 28.2562 125.541 28.0791C125.541 27.9182 125.605 27.7814 125.734 27.6687C125.879 27.556 126.024 27.4675 126.169 27.4031C126.426 27.3066 126.716 27.1778 127.038 27.0169C127.376 26.8398 127.85 26.6386 128.462 26.4133C128.575 26.365 128.679 26.2845 128.776 26.1719C128.873 26.0431 128.969 25.8178 129.066 25.4959C129.323 24.7233 129.661 24.1599 130.08 23.8059C130.498 23.4357 130.957 23.2506 131.456 23.2506C131.762 23.2506 131.971 23.3391 132.084 23.5161C132.196 23.6932 132.204 23.9909 132.108 24.4094L131.842 25.351C131.81 25.5119 131.794 25.6407 131.794 25.7373C131.81 25.8339 131.85 25.8741 131.915 25.858C132.124 25.8097 132.333 25.7695 132.542 25.7373C132.751 25.7051 132.977 25.689 133.218 25.689C134.071 25.689 134.788 25.8339 135.367 26.1236C135.946 26.3972 136.381 26.7835 136.671 27.2824C136.96 27.7814 137.105 28.3447 137.105 28.9724C137.105 29.8255 136.92 30.6946 136.55 31.5799C136.18 32.449 135.673 33.2618 135.029 34.0183C134.385 34.7587 133.645 35.3542 132.808 35.8049C131.987 36.2555 131.134 36.4809 130.249 36.4809C129.959 36.4809 129.701 36.4245 129.476 36.3119C129.251 36.1992 129.066 36.0946 128.921 35.998C128.712 35.837 128.551 35.7727 128.438 35.8049C128.341 35.837 128.245 36.006 128.148 36.3119L126.845 40.899C126.748 41.2048 126.788 41.4623 126.965 41.6716C127.158 41.8808 127.537 42.0579 128.1 42.2027C128.197 42.2188 128.293 42.259 128.39 42.3234C128.502 42.4039 128.559 42.5246 128.559 42.6856C128.559 42.766 128.502 42.8304 128.39 42.8787C128.293 42.9431 128.172 42.9753 128.028 42.9753C127.77 42.9753 127.44 42.9672 127.038 42.9511C126.635 42.935 126.249 42.9189 125.879 42.9029C125.525 42.9029 125.227 42.9109 124.986 42.927C124.583 42.927 124.108 42.9431 123.561 42.9753C123.014 43.0075 122.523 43.0236 122.088 43.0236ZM130.249 35.5634C130.554 35.5634 130.917 35.3944 131.335 35.0564C131.754 34.7184 132.164 34.2597 132.566 33.6803C132.985 33.0848 133.331 32.4168 133.605 31.6764C133.878 30.936 134.015 30.1635 134.015 29.3587C134.015 28.4896 133.838 27.8779 133.484 27.5239C133.13 27.1537 132.655 26.9686 132.059 26.9686C131.963 26.9686 131.858 26.9686 131.746 26.9686C131.649 26.9686 131.544 26.9847 131.432 27.0169L129.355 33.4871C129.275 33.7286 129.235 33.9619 129.235 34.1873C129.251 34.4126 129.299 34.6219 129.38 34.815C129.476 35.0403 129.573 35.2254 129.669 35.3703C129.782 35.499 129.975 35.5634 130.249 35.5634ZM140.848 36.505C140.413 36.505 139.954 36.3762 139.472 36.1187C138.989 35.8451 138.578 35.491 138.24 35.0564C137.902 34.6058 137.733 34.1068 137.733 33.5596C137.733 32.5617 137.918 31.5959 138.289 30.6624C138.659 29.7128 139.15 28.8678 139.761 28.1274C140.373 27.387 141.065 26.7996 141.838 26.365C142.626 25.9143 143.423 25.689 144.228 25.689C145.161 25.689 145.837 25.866 146.256 26.2201C146.674 26.5742 146.883 26.9927 146.883 27.4756C146.883 28.0228 146.698 28.4976 146.328 28.9C145.974 29.2863 145.507 29.6162 144.928 29.8899C144.365 30.1635 143.753 30.3888 143.093 30.5659C142.433 30.7429 141.805 30.8958 141.21 31.0246C141.129 31.0407 141.073 31.0648 141.041 31.097C141.009 31.1292 140.976 31.1855 140.944 31.266C140.912 31.3787 140.88 31.5074 140.848 31.6523C140.832 31.781 140.816 31.9098 140.799 32.0386C140.783 32.6019 140.928 33.0928 141.234 33.5113C141.556 33.9298 142.023 34.139 142.634 34.139C143.085 34.139 143.495 34.0263 143.866 33.801C144.252 33.5596 144.622 33.2457 144.976 32.8594C145.153 32.6824 145.29 32.5939 145.387 32.5939C145.548 32.5939 145.628 32.6743 145.628 32.8353C145.628 32.8836 145.62 32.9399 145.604 33.0043C145.604 33.0687 145.588 33.125 145.556 33.1733C145.25 33.7527 144.872 34.2999 144.421 34.815C143.97 35.3139 143.447 35.7244 142.852 36.0463C142.256 36.3521 141.588 36.505 140.848 36.505ZM141.379 30.1796C141.701 30.083 142.039 29.9703 142.393 29.8416C142.763 29.7128 143.101 29.5438 143.407 29.3346C143.713 29.1092 143.97 28.8356 144.179 28.5137C144.389 28.1918 144.509 27.8055 144.542 27.3549C144.542 27.1617 144.485 26.9847 144.373 26.8237C144.26 26.6467 144.091 26.5581 143.866 26.5581C143.576 26.5581 143.286 26.6628 142.996 26.872C142.723 27.0651 142.457 27.3307 142.2 27.6687C141.942 27.9906 141.725 28.3608 141.548 28.7793C141.387 29.1817 141.274 29.6001 141.21 30.0347C141.194 30.1635 141.25 30.2118 141.379 30.1796ZM150.236 36.4809C149.641 36.4809 149.094 36.336 148.595 36.0463C148.112 35.7405 147.718 35.3461 147.412 34.8633C147.122 34.3643 146.985 33.809 147.001 33.1974C147.017 32.4249 147.138 31.6684 147.363 30.928C147.589 30.1876 147.895 29.5036 148.281 28.8759C148.683 28.232 149.15 27.6768 149.681 27.21C150.212 26.7271 150.8 26.3569 151.444 26.0994C152.104 25.8258 152.804 25.689 153.544 25.689C154.156 25.689 154.655 25.8258 155.041 26.0994C155.427 26.373 155.62 26.7191 155.62 27.1376C155.62 27.4434 155.516 27.7492 155.306 28.055C155.097 28.3447 154.872 28.4896 154.63 28.4896C154.502 28.4896 154.389 28.4413 154.292 28.3447C154.196 28.2481 154.067 28.055 153.906 27.7653C153.745 27.4756 153.56 27.2341 153.351 27.041C153.158 26.8318 152.957 26.7271 152.747 26.7271C152.409 26.7271 152.071 26.88 151.733 27.1859C151.411 27.4917 151.114 27.9021 150.84 28.4171C150.583 28.9161 150.373 29.4714 150.212 30.083C150.051 30.6946 149.963 31.3143 149.947 31.942C149.931 32.5375 150.076 33.0043 150.381 33.3423C150.687 33.6642 151.106 33.8251 151.637 33.8251C152.071 33.8251 152.474 33.7286 152.844 33.5354C153.23 33.3262 153.56 33.0526 153.834 32.7146C153.898 32.618 153.971 32.5456 154.051 32.4973C154.148 32.449 154.228 32.4249 154.292 32.4249C154.453 32.4249 154.534 32.5134 154.534 32.6904C154.534 33.0767 154.405 33.4952 154.148 33.9459C153.89 34.3804 153.544 34.7909 153.109 35.1771C152.691 35.5634 152.232 35.8773 151.733 36.1187C151.234 36.3601 150.735 36.4809 150.236 36.4809ZM153.206 24.7716C153.045 24.7716 152.924 24.6911 152.844 24.5301C152.78 24.3692 152.699 24.1197 152.602 23.7817C152.538 23.5242 152.466 23.2586 152.385 22.985C152.305 22.6953 152.224 22.4056 152.144 22.1159C152.063 21.8261 151.991 21.5525 151.926 21.295C151.862 21.0214 151.814 20.7639 151.782 20.5224C151.717 20.2649 151.717 20.0396 151.782 19.8464C151.862 19.6533 152.015 19.5567 152.24 19.5567C152.482 19.5567 152.723 19.8062 152.965 20.3051C153.061 20.5305 153.182 20.796 153.327 21.1019C153.488 21.3916 153.665 21.7054 153.858 22.0434C153.922 22.14 154.019 22.14 154.148 22.0434C154.518 21.7054 154.88 21.3835 155.234 21.0777C155.604 20.7558 155.91 20.4902 156.151 20.281C156.425 20.0557 156.658 19.8786 156.852 19.7499C157.045 19.6211 157.19 19.5567 157.286 19.5567C157.463 19.5567 157.552 19.6533 157.552 19.8464C157.552 19.943 157.528 20.0476 157.479 20.1603C157.431 20.2729 157.351 20.4017 157.238 20.5466C156.948 20.8846 156.642 21.2387 156.32 21.6089C156.015 21.9629 155.701 22.3251 155.379 22.6953C155.057 23.0655 154.743 23.4276 154.437 23.7817C154.18 24.0714 153.946 24.3129 153.737 24.506C153.544 24.683 153.367 24.7716 153.206 24.7716ZM157.653 36.4809C157.267 36.4809 156.921 36.336 156.615 36.0463C156.326 35.7566 156.181 35.4669 156.181 35.1771C156.181 35.0967 156.189 35.0162 156.205 34.9357C156.221 34.8552 156.253 34.7667 156.301 34.6701C156.768 33.64 157.203 32.626 157.605 31.6281C158.008 30.6141 158.402 29.6484 158.788 28.731C158.82 28.6344 158.78 28.5861 158.667 28.5861C158.555 28.5861 158.41 28.6264 158.233 28.7069C158.056 28.7712 157.871 28.8598 157.678 28.9724C157.501 29.0851 157.323 29.1897 157.146 29.2863C156.937 29.415 156.784 29.4472 156.688 29.3829C156.591 29.3185 156.543 29.2219 156.543 29.0931C156.543 28.9805 156.647 28.8115 156.857 28.5861C157.082 28.3447 157.364 28.0872 157.702 27.8136C158.04 27.5239 158.41 27.2422 158.812 26.9686C159.215 26.6949 159.601 26.4535 159.971 26.2443C160.357 26.0189 160.679 25.858 160.937 25.7614C161.162 25.6649 161.396 25.6809 161.637 25.8097C161.895 25.9224 162.096 26.0833 162.241 26.2926C162.385 26.4857 162.418 26.6789 162.337 26.872L159.633 33.5354C159.617 33.5998 159.601 33.6722 159.585 33.7527C159.569 33.8171 159.561 33.8654 159.561 33.8976C159.561 33.9619 159.577 34.0102 159.609 34.0424C159.657 34.0746 159.698 34.0907 159.73 34.0907C159.875 34.0907 160.092 33.9941 160.382 33.801C160.687 33.6079 161.009 33.3825 161.347 33.125C161.685 32.8675 161.967 32.626 162.192 32.4007C162.241 32.3524 162.273 32.3283 162.289 32.3283C162.369 32.3283 162.442 32.3685 162.506 32.449C162.571 32.5134 162.603 32.5858 162.603 32.6663C162.603 32.956 162.426 33.3181 162.072 33.7527C161.734 34.1712 161.299 34.5897 160.768 35.0081C160.253 35.4266 159.714 35.7807 159.15 36.0704C158.603 36.344 158.104 36.4809 157.653 36.4809ZM162.072 23.9749C161.717 23.9749 161.42 23.838 161.178 23.5644C160.937 23.2747 160.816 22.9528 160.816 22.5987C160.816 22.0515 161.009 21.5686 161.396 21.1501C161.782 20.7317 162.265 20.5224 162.844 20.5224C163.23 20.5224 163.528 20.6834 163.737 21.0053C163.947 21.3111 164.051 21.641 164.051 21.9951C164.051 22.4941 163.858 22.9528 163.472 23.3713C163.086 23.7737 162.619 23.9749 162.072 23.9749ZM166.806 36.505C166.371 36.505 165.913 36.3762 165.43 36.1187C164.947 35.8451 164.537 35.491 164.199 35.0564C163.861 34.6058 163.692 34.1068 163.692 33.5596C163.692 32.5617 163.877 31.5959 164.247 30.6624C164.617 29.7128 165.108 28.8678 165.72 28.1274C166.331 27.387 167.023 26.7996 167.796 26.365C168.585 25.9143 169.381 25.689 170.186 25.689C171.12 25.689 171.796 25.866 172.214 26.2201C172.633 26.5742 172.842 26.9927 172.842 27.4756C172.842 28.0228 172.657 28.4976 172.286 28.9C171.932 29.2863 171.466 29.6162 170.886 29.8899C170.323 30.1635 169.711 30.3888 169.051 30.5659C168.391 30.7429 167.764 30.8958 167.168 31.0246C167.088 31.0407 167.031 31.0648 166.999 31.097C166.967 31.1292 166.935 31.1855 166.903 31.266C166.87 31.3787 166.838 31.5074 166.806 31.6523C166.79 31.781 166.774 31.9098 166.758 32.0386C166.742 32.6019 166.887 33.0928 167.192 33.5113C167.514 33.9298 167.981 34.139 168.593 34.139C169.043 34.139 169.454 34.0263 169.824 33.801C170.21 33.5596 170.58 33.2457 170.934 32.8594C171.112 32.6824 171.248 32.5939 171.345 32.5939C171.506 32.5939 171.586 32.6743 171.586 32.8353C171.586 32.8836 171.578 32.9399 171.562 33.0043C171.562 33.0687 171.546 33.125 171.514 33.1733C171.208 33.7527 170.83 34.2999 170.379 34.815C169.929 35.3139 169.405 35.7244 168.81 36.0463C168.214 36.3521 167.546 36.505 166.806 36.505ZM167.337 30.1796C167.659 30.083 167.997 29.9703 168.351 29.8416C168.721 29.7128 169.059 29.5438 169.365 29.3346C169.671 29.1092 169.929 28.8356 170.138 28.5137C170.347 28.1918 170.468 27.8055 170.5 27.3549C170.5 27.1617 170.444 26.9847 170.331 26.8237C170.218 26.6467 170.049 26.5581 169.824 26.5581C169.534 26.5581 169.244 26.6628 168.955 26.872C168.681 27.0651 168.416 27.3307 168.158 27.6687C167.901 27.9906 167.683 28.3608 167.506 28.7793C167.345 29.1817 167.233 29.6001 167.168 30.0347C167.152 30.1635 167.208 30.2118 167.337 30.1796Z" fill="#780000"/>
<path d="M71.2952 53.8703C71.2357 53.8703 71.1689 53.8443 71.0946 53.7923C71.0203 53.7477 70.9572 53.6957 70.9052 53.6363C70.8606 53.5694 70.8383 53.51 70.8383 53.458C70.8383 53.3317 70.8532 53.224 70.8829 53.1349C70.92 53.0457 70.9572 52.9454 70.9943 52.834L72.0529 49.8589C72.0677 49.8069 72.0603 49.7734 72.0306 49.7586C72.0083 49.7363 71.9786 49.7252 71.9415 49.7252L71.4957 49.7029C71.3992 49.6954 71.3397 49.6769 71.3175 49.6472C71.3026 49.61 71.2952 49.5766 71.2952 49.5469C71.2952 49.532 71.3137 49.506 71.3509 49.4689C71.388 49.4243 71.4326 49.3834 71.4846 49.3463C71.544 49.3017 71.6072 49.2794 71.674 49.2794H72.0752C72.1569 49.2794 72.2126 49.2683 72.2423 49.246C72.272 49.2163 72.3055 49.1606 72.3426 49.0789L72.61 48.5329C72.6397 48.4734 72.6955 48.4066 72.7772 48.3323C72.8589 48.2506 72.9406 48.18 73.0223 48.1206C73.1115 48.0612 73.1746 48.0314 73.2117 48.0314C73.2712 48.0314 73.3083 48.0723 73.3232 48.154C73.338 48.2357 73.3306 48.3137 73.3009 48.388L73.0112 49.1346C72.9963 49.1866 73 49.22 73.0223 49.2349C73.052 49.2497 73.0966 49.2572 73.156 49.2572C73.3046 49.2572 73.4569 49.2683 73.6129 49.2906C73.7689 49.3129 73.8952 49.3314 73.9917 49.3463C74.1106 49.3686 74.1812 49.3946 74.2035 49.4243C74.2332 49.4466 74.248 49.4763 74.248 49.5134C74.248 49.5283 74.2332 49.5543 74.2035 49.5914C74.1737 49.6212 74.118 49.6397 74.0363 49.6472C73.8729 49.6546 73.7169 49.6657 73.5683 49.6806C73.4197 49.688 73.2637 49.6954 73.1003 49.7029C72.9815 49.7103 72.896 49.7289 72.844 49.7586C72.7995 49.7883 72.7697 49.8254 72.7549 49.87L71.7632 52.6112C71.7335 52.7003 71.7186 52.7783 71.7186 52.8452C71.7186 52.912 71.7372 52.964 71.7743 53.0012C71.8189 53.0383 71.882 53.0569 71.9637 53.0569C72.0677 53.0569 72.1792 53.0197 72.298 52.9454C72.4169 52.8712 72.532 52.7857 72.6435 52.6892C72.7549 52.5926 72.8477 52.5072 72.922 52.4329C73.0037 52.3512 73.0743 52.314 73.1337 52.3214C73.1932 52.3289 73.2229 52.3549 73.2229 52.3994C73.2229 52.4514 73.2043 52.5109 73.1672 52.5777C73.13 52.6372 73.0817 52.7003 73.0223 52.7672C72.9035 52.8934 72.7772 53.0123 72.6435 53.1237C72.5172 53.2352 72.3835 53.3392 72.2423 53.4357C72.1086 53.5249 71.9786 53.6029 71.8523 53.6697C71.7335 53.7292 71.6257 53.7774 71.5292 53.8146C71.4326 53.8517 71.3546 53.8703 71.2952 53.8703ZM74.5042 53.9037C74.4671 53.9037 74.4262 53.8889 74.3817 53.8592C74.3371 53.8369 74.2999 53.8034 74.2702 53.7589C74.2405 53.7217 74.2257 53.6809 74.2257 53.6363C74.2257 53.5472 74.2479 53.4357 74.2925 53.302C74.3445 53.1609 74.4077 52.9863 74.4819 52.7783L75.5071 50.104C75.5442 50.0074 75.5591 49.9183 75.5517 49.8366C75.5517 49.7549 75.5145 49.714 75.4402 49.714C75.3362 49.714 75.2322 49.7289 75.1282 49.7586C75.0317 49.7809 74.9574 49.8069 74.9054 49.8366C74.8608 49.8663 74.8162 49.8737 74.7717 49.8589C74.7345 49.8366 74.7159 49.7994 74.7159 49.7474C74.7159 49.688 74.7419 49.6212 74.7939 49.5469C74.8534 49.4726 74.9314 49.402 75.0279 49.3352C75.1171 49.2683 75.2211 49.2126 75.3399 49.168C75.4662 49.1234 75.5962 49.1012 75.7299 49.1012C75.9379 49.1012 76.0679 49.1532 76.1199 49.2572C76.1794 49.3612 76.1868 49.5023 76.1422 49.6806C76.1051 49.8514 76.0419 50.0483 75.9528 50.2712L75.4514 51.5303C75.4217 51.5823 75.4291 51.6157 75.4737 51.6306C75.5257 51.6454 75.5628 51.6343 75.5851 51.5972C75.8822 51.0846 76.1794 50.6389 76.4765 50.26C76.7811 49.8737 77.0634 49.5766 77.3234 49.3686C77.5834 49.1532 77.7988 49.0454 77.9697 49.0454C78.1628 49.0454 78.2965 49.1012 78.3708 49.2126C78.4525 49.324 78.4934 49.454 78.4934 49.6026C78.4934 49.7363 78.4674 49.8737 78.4154 50.0149C78.3708 50.156 78.3039 50.2749 78.2148 50.3714C78.1331 50.4606 78.0402 50.5052 77.9362 50.5052C77.8768 50.5052 77.8322 50.4717 77.8025 50.4049C77.7728 50.3306 77.7579 50.234 77.7579 50.1152C77.7579 50.0037 77.7431 49.9183 77.7134 49.8589C77.6837 49.792 77.6279 49.7586 77.5462 49.7586C77.4719 49.7586 77.3717 49.8069 77.2454 49.9034C77.1265 50 76.9742 50.1672 76.7885 50.4049C76.7068 50.5163 76.5991 50.6686 76.4654 50.8617C76.3317 51.0549 76.1868 51.2703 76.0308 51.508C75.8822 51.7383 75.7337 51.976 75.5851 52.2212C75.4365 52.4589 75.3065 52.678 75.1951 52.8786C74.9945 53.2352 74.8497 53.4952 74.7605 53.6586C74.6788 53.822 74.5934 53.9037 74.5042 53.9037ZM78.113 53.8703C78.0239 53.8703 77.9347 53.8443 77.8456 53.7923C77.7565 53.7477 77.6822 53.6883 77.6227 53.614C77.5707 53.5397 77.5447 53.4617 77.5447 53.38C77.5447 53.1126 77.6339 52.8043 77.8122 52.4552C77.9905 52.0986 78.2393 51.7272 78.5587 51.3409C78.8782 50.9472 79.2459 50.5683 79.6619 50.2043C80.063 49.8552 80.3899 49.5952 80.6425 49.4243C80.895 49.246 81.0807 49.1569 81.1996 49.1569C81.3185 49.1569 81.4225 49.2089 81.5116 49.3129C81.6156 49.4466 81.6602 49.5097 81.6453 49.5023C81.6379 49.4874 81.6379 49.48 81.6453 49.48C81.6602 49.48 81.6713 49.4763 81.6787 49.4689C81.6936 49.454 81.7047 49.4354 81.7122 49.4132C81.8162 49.2349 81.8793 49.1272 81.9016 49.09C81.9239 49.0529 81.9239 49.0492 81.9016 49.0789C81.9462 49.0046 81.9907 48.9674 82.0353 48.9674C82.1022 48.9674 82.169 48.9786 82.2359 49.0009C82.3027 49.0232 82.3547 49.0529 82.3919 49.09C82.4365 49.1272 82.4587 49.1643 82.4587 49.2014C82.4587 49.2386 82.4327 49.3314 82.3807 49.48L81.1327 52.7894C81.0362 53.042 81.0845 53.1683 81.2776 53.1683C81.4113 53.1683 81.571 53.1052 81.7567 52.9789C81.9499 52.8452 82.117 52.6854 82.2582 52.4997C82.273 52.4849 82.2879 52.4737 82.3027 52.4663C82.325 52.4514 82.3436 52.444 82.3585 52.444C82.3882 52.444 82.4067 52.4552 82.4142 52.4774C82.429 52.4923 82.4365 52.522 82.4365 52.5666C82.4365 52.6186 82.3845 52.7226 82.2805 52.8786C82.1765 53.0272 82.0687 53.1572 81.9573 53.2686C81.7493 53.4617 81.5376 53.6103 81.3222 53.7143C81.1142 53.8183 80.921 53.8703 80.7427 53.8703C80.6685 53.8703 80.5942 53.848 80.5199 53.8034C80.4456 53.7589 80.3825 53.7032 80.3305 53.6363C80.2859 53.5694 80.2636 53.5026 80.2636 53.4357C80.2636 53.354 80.2859 53.2686 80.3305 53.1794C80.3007 53.2463 80.297 53.2463 80.3193 53.1794C80.349 53.1126 80.3936 53.0086 80.453 52.8674C80.5199 52.7263 80.5905 52.5777 80.6647 52.4217C80.739 52.2657 80.8022 52.1283 80.8542 52.0094C80.8913 51.9277 80.9062 51.8683 80.8987 51.8312C80.8987 51.7866 80.8765 51.7903 80.8319 51.8423C80.3787 52.3474 79.9887 52.7486 79.6619 53.0457C79.3425 53.3429 79.0602 53.5546 78.815 53.6809C78.5699 53.8072 78.3359 53.8703 78.113 53.8703ZM78.737 53.1683C78.9005 53.1683 79.1419 53.0346 79.4613 52.7672C79.7882 52.4923 80.1559 52.1134 80.5645 51.6306C80.8467 51.3037 81.0696 51.0029 81.233 50.728C81.3965 50.4532 81.4782 50.2489 81.4782 50.1152C81.4782 50.0557 81.4299 49.9852 81.3333 49.9034C81.2887 49.8663 81.2405 49.8366 81.1885 49.8143C81.1365 49.792 81.0919 49.7809 81.0547 49.7809C80.921 49.7809 80.7353 49.8477 80.4976 49.9814C80.2673 50.1152 80.0556 50.2749 79.8625 50.4606C79.6173 50.6983 79.3833 50.9657 79.1605 51.2629C78.9376 51.56 78.7556 51.846 78.6145 52.1209C78.4807 52.3957 78.4139 52.6186 78.4139 52.7894C78.4139 52.9009 78.4436 52.9937 78.503 53.068C78.5625 53.1349 78.6405 53.1683 78.737 53.1683ZM83.8651 53.8703C83.6497 53.8703 83.4751 53.796 83.3414 53.6474C83.2077 53.4989 83.1408 53.3057 83.1408 53.068C83.1408 52.7857 83.2002 52.47 83.3191 52.1209C83.4454 51.7717 83.6125 51.4189 83.8205 51.0623C84.036 50.7057 84.2774 50.3752 84.5448 50.0706C84.8345 49.7437 85.128 49.4912 85.4251 49.3129C85.7222 49.1272 85.9897 49.0343 86.2274 49.0343C86.324 49.0343 86.402 49.0492 86.4614 49.0789C86.5208 49.1012 86.6545 49.1792 86.8625 49.3129C87.0185 49.4094 87.104 49.4652 87.1188 49.48C87.1411 49.4874 87.1448 49.4912 87.13 49.4912C87.1522 49.4912 87.1708 49.4652 87.1857 49.4132L87.9322 46.906C87.9471 46.8614 87.9545 46.828 87.9545 46.8057C87.962 46.776 87.9657 46.7574 87.9657 46.75C87.9731 46.7352 87.9768 46.724 87.9768 46.7166C87.9768 46.7017 87.9768 46.6906 87.9768 46.6832C87.9768 46.6014 87.9545 46.5383 87.91 46.4937C87.8654 46.4417 87.7837 46.3934 87.6648 46.3489C87.5014 46.2894 87.4048 46.256 87.3751 46.2486C87.3454 46.2337 87.3305 46.2152 87.3305 46.1929C87.3305 46.1409 87.3602 46.1 87.4197 46.0703C87.4791 46.0406 87.5757 46.0146 87.7094 45.9923C87.8208 45.9774 87.9322 45.9626 88.0437 45.9477C88.1625 45.9254 88.2702 45.9106 88.3668 45.9032C88.4634 45.8883 88.5451 45.8772 88.612 45.8697C88.6788 45.8623 88.7234 45.8586 88.7457 45.8586C88.8348 45.8586 88.8794 45.9106 88.8794 46.0146C88.8794 46.0517 88.8757 46.0926 88.8682 46.1372C88.8608 46.1743 88.8497 46.2189 88.8348 46.2709L87.0297 52.522C87.0148 52.5814 87 52.6409 86.9851 52.7003C86.9777 52.7523 86.974 52.808 86.974 52.8674C86.974 53.0309 87.026 53.1126 87.13 53.1126C87.2265 53.1126 87.3417 53.0792 87.4754 53.0123C87.6091 52.938 87.7428 52.8414 87.8765 52.7226C88.0102 52.6037 88.1254 52.4774 88.222 52.3437C88.2368 52.3214 88.2517 52.3066 88.2665 52.2992C88.2814 52.2917 88.2962 52.288 88.3111 52.288C88.3705 52.288 88.3928 52.3177 88.378 52.3772C88.378 52.4589 88.3371 52.5629 88.2554 52.6892C88.1737 52.8154 88.066 52.9492 87.9322 53.0903C87.7985 53.224 87.6537 53.3503 87.4977 53.4692C87.3491 53.588 87.2042 53.6846 87.0631 53.7589C86.922 53.8332 86.8031 53.8703 86.7065 53.8703C86.6248 53.8703 86.5468 53.8443 86.4725 53.7923C86.3982 53.7477 86.3351 53.6883 86.2831 53.614C86.2385 53.5323 86.2162 53.4506 86.2162 53.3689C86.2162 53.3317 86.2311 53.2352 86.2608 53.0792C86.2757 52.9974 86.298 52.8972 86.3277 52.7783C86.3574 52.652 86.3834 52.5332 86.4057 52.4217C86.4354 52.3029 86.454 52.2174 86.4614 52.1654C86.4762 52.1134 86.4762 52.1209 86.4614 52.1877C86.4762 52.1283 86.4725 52.0874 86.4502 52.0652C86.4354 52.0354 86.4168 52.0392 86.3945 52.0763C85.882 52.7226 85.4325 53.1832 85.0462 53.458C84.66 53.7329 84.2662 53.8703 83.8651 53.8703ZM84.2774 53.3466C84.478 53.3466 84.6971 53.276 84.9348 53.1349C85.1725 52.9863 85.4065 52.7932 85.6368 52.5554C85.8745 52.3103 86.09 52.0429 86.2831 51.7532C86.4837 51.4634 86.6434 51.1737 86.7622 50.884C86.8811 50.5943 86.9405 50.3269 86.9405 50.0817C86.9405 49.8663 86.8922 49.6992 86.7957 49.5803C86.6991 49.454 86.5617 49.3909 86.3834 49.3909C86.2125 49.3909 86.0194 49.4726 85.804 49.636C85.5885 49.7994 85.3694 50.0149 85.1465 50.2823C84.9237 50.5497 84.7157 50.8432 84.5225 51.1626C84.3368 51.4746 84.1845 51.7866 84.0657 52.0986C83.9542 52.4106 83.8985 52.6854 83.8985 52.9232C83.8985 53.0866 83.9245 53.198 83.9765 53.2574C84.036 53.3169 84.1362 53.3466 84.2774 53.3466ZM89.5661 53.8703C89.4398 53.8703 89.3358 53.8294 89.2541 53.7477C89.1723 53.666 89.1315 53.5806 89.1315 53.4914C89.1315 53.4617 89.1315 53.432 89.1315 53.4023C89.1389 53.3726 89.1501 53.3429 89.1649 53.3132C89.4695 52.6966 89.7258 52.1172 89.9338 51.5749C90.1418 51.0252 90.3275 50.546 90.4909 50.1374C90.5206 50.0483 90.5021 50.0037 90.4352 50.0037C90.3981 50.0037 90.3238 50.026 90.2123 50.0706C90.1083 50.1077 89.9969 50.1597 89.8781 50.2266C89.7592 50.2934 89.6552 50.3603 89.5661 50.4272C89.5289 50.4569 89.4918 50.4643 89.4546 50.4494C89.4175 50.4346 89.3989 50.4086 89.3989 50.3714C89.3989 50.3343 89.4249 50.2823 89.4769 50.2154C89.5363 50.1412 89.6143 50.0594 89.7109 49.9703C89.8149 49.8812 89.9375 49.7883 90.0786 49.6917C90.2198 49.5877 90.3721 49.4874 90.5355 49.3909C90.7063 49.2869 90.8846 49.194 91.0703 49.1123C91.1372 49.0826 91.2041 49.09 91.2709 49.1346C91.3378 49.1792 91.3898 49.2349 91.4269 49.3017C91.4715 49.3686 91.4863 49.4206 91.4715 49.4577L90.1121 52.678C90.0823 52.7374 90.0601 52.7969 90.0452 52.8563C90.0378 52.9083 90.0341 52.9566 90.0341 53.0012C90.0341 53.0532 90.0526 53.0903 90.0898 53.1126C90.1343 53.1274 90.1752 53.1349 90.2123 53.1349C90.3163 53.1349 90.4352 53.0866 90.5689 52.99C90.7026 52.886 90.8438 52.7634 90.9923 52.6223C91.1483 52.4737 91.2969 52.3289 91.4381 52.1877C91.4529 52.1729 91.4678 52.1654 91.4826 52.1654C91.4975 52.1654 91.5123 52.1729 91.5272 52.1877C91.5421 52.1952 91.5495 52.2063 91.5495 52.2212C91.5495 52.34 91.4789 52.4923 91.3378 52.678C91.1966 52.8563 91.0183 53.0383 90.8029 53.224C90.5949 53.4023 90.3795 53.5546 90.1566 53.6809C89.9338 53.8072 89.7369 53.8703 89.5661 53.8703ZM91.8169 47.998C91.7055 47.998 91.6126 47.9534 91.5383 47.8643C91.4641 47.7752 91.4269 47.6749 91.4269 47.5634C91.4269 47.3852 91.4863 47.2292 91.6052 47.0954C91.7241 46.9543 91.8726 46.8837 92.0509 46.8837C92.1698 46.8837 92.2626 46.9357 92.3295 47.0397C92.3963 47.1363 92.4298 47.244 92.4298 47.3629C92.4298 47.5263 92.3703 47.6749 92.2515 47.8086C92.1326 47.9349 91.9878 47.998 91.8169 47.998ZM92.9915 53.8814C92.8578 53.8814 92.7167 53.8294 92.5681 53.7254C92.427 53.6289 92.3044 53.4952 92.2004 53.3243C92.1038 53.146 92.0555 52.9417 92.0555 52.7114C92.063 52.444 92.1075 52.1506 92.1892 51.8312C92.271 51.5043 92.3898 51.1812 92.5458 50.8617C92.7018 50.5423 92.895 50.2489 93.1252 49.9814C93.363 49.714 93.6341 49.5023 93.9387 49.3463C94.2432 49.1829 94.585 49.1012 94.9638 49.1012C95.1644 49.1012 95.3167 49.1383 95.4207 49.2126C95.5247 49.2794 95.5767 49.3612 95.5767 49.4577C95.5767 49.5766 95.5395 49.6992 95.4652 49.8254C95.3984 49.9443 95.3241 50.0037 95.2424 50.0037C95.183 50.0037 95.131 49.9777 95.0864 49.9257C95.0492 49.8737 95.0121 49.8106 94.975 49.7363C94.9304 49.6546 94.8747 49.5803 94.8078 49.5134C94.741 49.4392 94.6444 49.402 94.5181 49.402C94.3398 49.402 94.1541 49.5097 93.961 49.7252C93.7678 49.9406 93.5858 50.2154 93.415 50.5497C93.2515 50.884 93.1178 51.2369 93.0138 51.6083C92.9098 51.9797 92.8578 52.3177 92.8578 52.6223C92.8578 52.8674 92.9061 53.0346 93.0027 53.1237C93.0992 53.2129 93.2292 53.2574 93.3927 53.2574C93.6304 53.2574 93.8198 53.2129 93.961 53.1237C94.1021 53.0272 94.2432 52.912 94.3844 52.7783C94.4364 52.7263 94.4735 52.6892 94.4958 52.6669C94.5255 52.6446 94.5627 52.6334 94.6072 52.6334C94.6667 52.6334 94.6964 52.6817 94.6964 52.7783C94.6964 52.8377 94.6481 52.9269 94.5515 53.0457C94.4624 53.1646 94.3361 53.2909 94.1727 53.4246C94.0167 53.5509 93.8347 53.6586 93.6267 53.7477C93.4261 53.8369 93.2144 53.8814 92.9915 53.8814ZM94.585 48.5663C94.533 48.5663 94.4958 48.5403 94.4735 48.4883C94.4512 48.4363 94.4215 48.3509 94.3844 48.232C94.3547 48.1206 94.325 47.9832 94.2952 47.8197C94.2655 47.6489 94.2358 47.478 94.2061 47.3072C94.1838 47.1363 94.1652 46.9877 94.1504 46.8614C94.1355 46.7352 94.1281 46.6572 94.1281 46.6274C94.1281 46.5829 94.1355 46.5346 94.1504 46.4826C94.1652 46.4232 94.1875 46.3934 94.2172 46.3934C94.2841 46.3934 94.3472 46.4566 94.4067 46.5829C94.4512 46.6943 94.5107 46.8503 94.585 47.0509C94.6667 47.244 94.741 47.426 94.8078 47.5969C94.8301 47.6563 94.8635 47.6563 94.9081 47.5969C95.079 47.426 95.261 47.244 95.4541 47.0509C95.6547 46.8577 95.8181 46.698 95.9444 46.5717C95.9815 46.5346 96.0261 46.4974 96.0781 46.4603C96.1301 46.4157 96.171 46.3934 96.2007 46.3934C96.2675 46.3934 96.301 46.4269 96.301 46.4937C96.301 46.5234 96.2935 46.5569 96.2787 46.594C96.2638 46.6237 96.2452 46.6572 96.223 46.6943C96.1635 46.7834 96.0632 46.9209 95.9221 47.1066C95.7884 47.2849 95.6472 47.4706 95.4987 47.6637C95.3501 47.8494 95.2312 47.9943 95.1421 48.0983C95.0455 48.2172 94.9415 48.3249 94.8301 48.4214C94.7261 48.518 94.6444 48.5663 94.585 48.5663ZM96.0834 53.8926C96.0388 53.8926 95.9943 53.874 95.9497 53.8369C95.9126 53.8072 95.8791 53.7663 95.8494 53.7143C95.8197 53.6697 95.7974 53.6177 95.7826 53.5583C95.7751 53.4989 95.7826 53.4469 95.8048 53.4023L97.0974 50.2377C97.2311 49.9109 97.2386 49.7474 97.1197 49.7474C97.0454 49.7474 96.9674 49.7586 96.8857 49.7809C96.804 49.7957 96.7148 49.8403 96.6183 49.9146C96.5217 49.9889 96.414 50.104 96.2951 50.26C96.2654 50.2897 96.232 50.3046 96.1948 50.3046C96.1651 50.2972 96.1428 50.2674 96.128 50.2154C96.128 50.1709 96.1391 50.1152 96.1614 50.0483C96.1911 49.974 96.2246 49.9034 96.2617 49.8366C96.2988 49.7623 96.3323 49.7029 96.362 49.6583C96.4734 49.4874 96.622 49.3537 96.8077 49.2572C97.0008 49.1606 97.2237 49.1086 97.4763 49.1012C97.558 49.1012 97.6323 49.1234 97.6991 49.168C97.766 49.2052 97.8143 49.2609 97.844 49.3352C97.8811 49.4094 97.8811 49.4912 97.844 49.5803L97.1086 51.4746C97.0863 51.5266 97.09 51.5563 97.1197 51.5637C97.1568 51.5712 97.1866 51.5563 97.2088 51.5192C97.5134 50.9992 97.8217 50.5609 98.1337 50.2043C98.4531 49.8403 98.7577 49.5654 99.0474 49.3797C99.3371 49.194 99.5934 49.1012 99.8163 49.1012C99.9723 49.1012 100.106 49.1569 100.217 49.2683C100.336 49.3723 100.411 49.5172 100.44 49.7029C100.477 49.8812 100.444 50.0892 100.34 50.3269L99.3148 52.756C99.2034 53.0234 99.222 53.1572 99.3706 53.1572C99.4597 53.1572 99.5674 53.1237 99.6937 53.0569C99.8274 52.99 99.9611 52.912 100.095 52.8229C100.229 52.7263 100.344 52.6409 100.44 52.5666C100.544 52.4849 100.611 52.4292 100.641 52.3994C100.648 52.392 100.652 52.3883 100.652 52.3883C100.659 52.3883 100.667 52.3883 100.674 52.3883C100.697 52.3883 100.715 52.3994 100.73 52.4217C100.752 52.4366 100.763 52.4589 100.763 52.4886C100.763 52.548 100.749 52.6 100.719 52.6446C100.526 52.8749 100.318 53.0829 100.095 53.2686C99.8794 53.4543 99.6528 53.6029 99.4151 53.7143C99.1848 53.8183 98.9508 53.8703 98.7131 53.8703C98.6463 53.8703 98.5794 53.8443 98.5126 53.7923C98.4457 53.7477 98.3937 53.6883 98.3566 53.614C98.3268 53.5397 98.3306 53.4617 98.3677 53.38C98.5831 52.8823 98.7986 52.3883 99.014 51.898C99.2368 51.4003 99.4448 50.9026 99.638 50.4049C99.7568 50.1003 99.7977 49.8886 99.7606 49.7697C99.7234 49.6434 99.6528 49.5766 99.5488 49.5692C99.4671 49.5617 99.3706 49.5914 99.2591 49.6583C99.1477 49.7177 99.0214 49.8143 98.8803 49.948C98.7391 50.0743 98.5868 50.2377 98.4234 50.4383C98.3343 50.5423 98.2154 50.7057 98.0668 50.9286C97.9183 51.144 97.7511 51.3966 97.5654 51.6863C97.3797 51.9686 97.1866 52.2732 96.986 52.6C96.7928 52.9194 96.6071 53.2352 96.4288 53.5472C96.362 53.666 96.3026 53.7514 96.2506 53.8034C96.1986 53.8629 96.1428 53.8926 96.0834 53.8926ZM101.993 53.8703C101.867 53.8703 101.763 53.8294 101.681 53.7477C101.599 53.666 101.558 53.5806 101.558 53.4914C101.558 53.4617 101.558 53.432 101.558 53.4023C101.566 53.3726 101.577 53.3429 101.592 53.3132C101.896 52.6966 102.153 52.1172 102.361 51.5749C102.569 51.0252 102.754 50.546 102.918 50.1374C102.948 50.0483 102.929 50.0037 102.862 50.0037C102.825 50.0037 102.751 50.026 102.639 50.0706C102.535 50.1077 102.424 50.1597 102.305 50.2266C102.186 50.2934 102.082 50.3603 101.993 50.4272C101.956 50.4569 101.919 50.4643 101.882 50.4494C101.844 50.4346 101.826 50.4086 101.826 50.3714C101.826 50.3343 101.852 50.2823 101.904 50.2154C101.963 50.1412 102.041 50.0594 102.138 49.9703C102.242 49.8812 102.364 49.7883 102.506 49.6917C102.647 49.5877 102.799 49.4874 102.962 49.3909C103.133 49.2869 103.312 49.194 103.497 49.1123C103.564 49.0826 103.631 49.09 103.698 49.1346C103.765 49.1792 103.817 49.2349 103.854 49.3017C103.898 49.3686 103.913 49.4206 103.898 49.4577L102.539 52.678C102.509 52.7374 102.487 52.7969 102.472 52.8563C102.465 52.9083 102.461 52.9566 102.461 53.0012C102.461 53.0532 102.48 53.0903 102.517 53.1126C102.561 53.1274 102.602 53.1349 102.639 53.1349C102.743 53.1349 102.862 53.0866 102.996 52.99C103.13 52.886 103.271 52.7634 103.419 52.6223C103.575 52.4737 103.724 52.3289 103.865 52.1877C103.88 52.1729 103.895 52.1654 103.91 52.1654C103.924 52.1654 103.939 52.1729 103.954 52.1877C103.969 52.1952 103.976 52.2063 103.976 52.2212C103.976 52.34 103.906 52.4923 103.765 52.678C103.624 52.8563 103.445 53.0383 103.23 53.224C103.022 53.4023 102.806 53.5546 102.584 53.6809C102.361 53.8072 102.164 53.8703 101.993 53.8703ZM103.865 48.4214C103.806 48.4214 103.772 48.3992 103.765 48.3546C103.757 48.3026 103.768 48.2506 103.798 48.1986L104.634 46.594C104.671 46.5197 104.712 46.4566 104.756 46.4046C104.808 46.3452 104.86 46.3154 104.912 46.3154C104.95 46.3154 105.002 46.3377 105.068 46.3823C105.143 46.4269 105.206 46.4789 105.258 46.5383C105.317 46.5977 105.347 46.6572 105.347 46.7166C105.347 46.7463 105.328 46.7909 105.291 46.8503C105.262 46.9023 105.213 46.9692 105.146 47.0509L104.121 48.2543C104.092 48.2989 104.051 48.3397 103.999 48.3769C103.954 48.4066 103.91 48.4214 103.865 48.4214ZM107.432 53.9037C107.395 53.9037 107.354 53.8889 107.31 53.8592C107.265 53.8369 107.228 53.8034 107.198 53.7589C107.169 53.7217 107.154 53.6809 107.154 53.6363C107.154 53.5472 107.176 53.4357 107.221 53.302C107.273 53.1609 107.336 52.9863 107.41 52.7783L108.435 50.104C108.472 50.0074 108.487 49.9183 108.48 49.8366C108.48 49.7549 108.443 49.714 108.368 49.714C108.264 49.714 108.16 49.7289 108.056 49.7586C107.96 49.7809 107.885 49.8069 107.833 49.8366C107.789 49.8663 107.744 49.8737 107.7 49.8589C107.663 49.8366 107.644 49.7994 107.644 49.7474C107.644 49.688 107.67 49.6212 107.722 49.5469C107.781 49.4726 107.859 49.402 107.956 49.3352C108.045 49.2683 108.149 49.2126 108.268 49.168C108.394 49.1234 108.524 49.1012 108.658 49.1012C108.866 49.1012 108.996 49.1532 109.048 49.2572C109.107 49.3612 109.115 49.5023 109.07 49.6806C109.033 49.8514 108.97 50.0483 108.881 50.2712L108.379 51.5303C108.35 51.5823 108.357 51.6157 108.402 51.6306C108.454 51.6454 108.491 51.6343 108.513 51.5972C108.81 51.0846 109.107 50.6389 109.405 50.26C109.709 49.8737 109.991 49.5766 110.251 49.3686C110.511 49.1532 110.727 49.0454 110.898 49.0454C111.091 49.0454 111.225 49.1012 111.299 49.2126C111.381 49.324 111.421 49.454 111.421 49.6026C111.421 49.7363 111.395 49.8737 111.343 50.0149C111.299 50.156 111.232 50.2749 111.143 50.3714C111.061 50.4606 110.968 50.5052 110.864 50.5052C110.805 50.5052 110.76 50.4717 110.731 50.4049C110.701 50.3306 110.686 50.234 110.686 50.1152C110.686 50.0037 110.671 49.9183 110.641 49.8589C110.612 49.792 110.556 49.7586 110.474 49.7586C110.4 49.7586 110.3 49.8069 110.173 49.9034C110.055 50 109.902 50.1672 109.717 50.4049C109.635 50.5163 109.527 50.6686 109.393 50.8617C109.26 51.0549 109.115 51.2703 108.959 51.508C108.81 51.7383 108.662 51.976 108.513 52.2212C108.365 52.4589 108.235 52.678 108.123 52.8786C107.923 53.2352 107.778 53.4952 107.689 53.6586C107.607 53.822 107.521 53.9037 107.432 53.9037ZM112.167 53.8814C112.011 53.8814 111.851 53.822 111.688 53.7032C111.532 53.5843 111.402 53.4357 111.298 53.2574C111.194 53.0717 111.142 52.8934 111.142 52.7226C111.142 52.3512 111.216 51.9574 111.365 51.5414C111.521 51.118 111.732 50.7243 112 50.3603C112.267 49.9889 112.575 49.688 112.925 49.4577C113.281 49.22 113.656 49.1012 114.05 49.1012C114.31 49.1012 114.511 49.1569 114.652 49.2683C114.8 49.3723 114.875 49.5209 114.875 49.714C114.875 49.9443 114.8 50.1449 114.652 50.3157C114.511 50.4866 114.317 50.6352 114.072 50.7614C113.827 50.8803 113.552 50.9806 113.248 51.0623C112.951 51.144 112.646 51.2146 112.334 51.274C112.289 51.2814 112.252 51.2926 112.223 51.3074C112.2 51.3149 112.182 51.3409 112.167 51.3854C112.115 51.5489 112.063 51.7272 112.011 51.9203C111.959 52.1134 111.933 52.2954 111.933 52.4663C111.933 52.7263 111.981 52.9269 112.078 53.068C112.182 53.2092 112.33 53.2797 112.523 53.2797C112.791 53.2797 113.017 53.2129 113.203 53.0792C113.389 52.9454 113.541 52.8117 113.66 52.678C113.734 52.5963 113.801 52.5554 113.861 52.5554C113.935 52.5554 113.972 52.5926 113.972 52.6669C113.972 52.6743 113.972 52.6892 113.972 52.7114C113.972 52.7263 113.965 52.7412 113.95 52.756C113.801 53.0012 113.634 53.2092 113.448 53.38C113.263 53.5434 113.062 53.666 112.847 53.7477C112.639 53.8369 112.412 53.8814 112.167 53.8814ZM112.412 51.0177C112.494 51.0177 112.631 50.9954 112.824 50.9509C113.025 50.8989 113.233 50.8209 113.448 50.7169C113.664 50.6054 113.846 50.4717 113.994 50.3157C114.15 50.1523 114.228 49.9592 114.228 49.7363C114.228 49.6397 114.202 49.558 114.15 49.4912C114.098 49.4169 114.024 49.3797 113.927 49.3797C113.771 49.3797 113.601 49.4466 113.415 49.5803C113.237 49.7066 113.066 49.8626 112.902 50.0483C112.739 50.2266 112.601 50.4012 112.49 50.572C112.386 50.7429 112.334 50.8692 112.334 50.9509C112.334 50.9954 112.36 51.0177 112.412 51.0177ZM115.887 53.8814C115.753 53.8814 115.612 53.8294 115.463 53.7254C115.322 53.6289 115.199 53.4952 115.095 53.3243C114.999 53.146 114.951 52.9417 114.951 52.7114C114.958 52.444 115.003 52.1506 115.084 51.8312C115.166 51.5043 115.285 51.1812 115.441 50.8617C115.597 50.5423 115.79 50.2489 116.02 49.9814C116.258 49.714 116.529 49.5023 116.834 49.3463C117.138 49.1829 117.48 49.1012 117.859 49.1012C118.059 49.1012 118.212 49.1383 118.316 49.2126C118.42 49.2794 118.472 49.3612 118.472 49.4577C118.472 49.5766 118.435 49.6992 118.36 49.8254C118.293 49.9443 118.219 50.0037 118.137 50.0037C118.078 50.0037 118.026 49.9777 117.981 49.9257C117.944 49.8737 117.907 49.8106 117.87 49.7363C117.825 49.6546 117.77 49.5803 117.703 49.5134C117.636 49.4392 117.539 49.402 117.413 49.402C117.235 49.402 117.049 49.5097 116.856 49.7252C116.663 49.9406 116.481 50.2154 116.31 50.5497C116.147 50.884 116.013 51.2369 115.909 51.6083C115.805 51.9797 115.753 52.3177 115.753 52.6223C115.753 52.8674 115.801 53.0346 115.898 53.1237C115.994 53.2129 116.124 53.2574 116.288 53.2574C116.525 53.2574 116.715 53.2129 116.856 53.1237C116.997 53.0272 117.138 52.912 117.279 52.7783C117.331 52.7263 117.369 52.6892 117.391 52.6669C117.421 52.6446 117.458 52.6334 117.502 52.6334C117.562 52.6334 117.591 52.6817 117.591 52.7783C117.591 52.8377 117.543 52.9269 117.447 53.0457C117.357 53.1646 117.231 53.2909 117.068 53.4246C116.912 53.5509 116.73 53.6586 116.522 53.7477C116.321 53.8369 116.109 53.8814 115.887 53.8814ZM119.294 53.8814C119.138 53.8814 118.979 53.822 118.815 53.7032C118.659 53.5843 118.529 53.4357 118.425 53.2574C118.321 53.0717 118.269 52.8934 118.269 52.7226C118.269 52.3512 118.344 51.9574 118.492 51.5414C118.648 51.118 118.86 50.7243 119.127 50.3603C119.395 49.9889 119.703 49.688 120.052 49.4577C120.409 49.22 120.784 49.1012 121.178 49.1012C121.438 49.1012 121.638 49.1569 121.779 49.2683C121.928 49.3723 122.002 49.5209 122.002 49.714C122.002 49.9443 121.928 50.1449 121.779 50.3157C121.638 50.4866 121.445 50.6352 121.2 50.7614C120.955 50.8803 120.68 50.9806 120.375 51.0623C120.078 51.144 119.774 51.2146 119.462 51.274C119.417 51.2814 119.38 51.2926 119.35 51.3074C119.328 51.3149 119.309 51.3409 119.294 51.3854C119.242 51.5489 119.19 51.7272 119.138 51.9203C119.086 52.1134 119.06 52.2954 119.06 52.4663C119.06 52.7263 119.109 52.9269 119.205 53.068C119.309 53.2092 119.458 53.2797 119.651 53.2797C119.918 53.2797 120.145 53.2129 120.331 53.0792C120.516 52.9454 120.669 52.8117 120.788 52.678C120.862 52.5963 120.929 52.5554 120.988 52.5554C121.062 52.5554 121.1 52.5926 121.1 52.6669C121.1 52.6743 121.1 52.6892 121.1 52.7114C121.1 52.7263 121.092 52.7412 121.077 52.756C120.929 53.0012 120.762 53.2092 120.576 53.38C120.39 53.5434 120.19 53.666 119.974 53.7477C119.766 53.8369 119.54 53.8814 119.294 53.8814ZM119.54 51.0177C119.621 51.0177 119.759 50.9954 119.952 50.9509C120.152 50.8989 120.36 50.8209 120.576 50.7169C120.791 50.6054 120.973 50.4717 121.122 50.3157C121.278 50.1523 121.356 49.9592 121.356 49.7363C121.356 49.6397 121.33 49.558 121.278 49.4912C121.226 49.4169 121.152 49.3797 121.055 49.3797C120.899 49.3797 120.728 49.4466 120.542 49.5803C120.364 49.7066 120.193 49.8626 120.03 50.0483C119.866 50.2266 119.729 50.4012 119.618 50.572C119.514 50.7429 119.462 50.8692 119.462 50.9509C119.462 50.9954 119.488 51.0177 119.54 51.0177ZM120.719 56.9012C120.682 56.9012 120.644 56.8937 120.607 56.8789C120.563 56.864 120.54 56.838 120.54 56.8009C120.54 56.7414 120.581 56.6894 120.663 56.6449C120.737 56.6077 120.808 56.5854 120.875 56.578C121.031 56.5483 121.153 56.5074 121.242 56.4554C121.332 56.4034 121.402 56.3069 121.454 56.1657L123.605 50.1597C123.642 50.0557 123.664 49.9777 123.672 49.9257C123.679 49.8737 123.668 49.8403 123.638 49.8254C123.608 49.8032 123.556 49.7994 123.482 49.8143C123.304 49.844 123.148 49.8774 123.014 49.9146C122.888 49.9443 122.747 49.9963 122.591 50.0706C122.531 50.1003 122.476 50.1077 122.424 50.0929C122.379 50.0706 122.357 50.0372 122.357 49.9926C122.357 49.9332 122.372 49.8849 122.401 49.8477C122.438 49.8106 122.479 49.7809 122.524 49.7586C122.643 49.6992 122.814 49.6174 123.036 49.5134C123.259 49.4094 123.519 49.3203 123.816 49.246C123.868 49.2312 123.909 49.2126 123.939 49.1903C123.976 49.1606 124.002 49.1197 124.017 49.0677C124.121 48.7186 124.218 48.466 124.307 48.31C124.396 48.154 124.522 48.076 124.686 48.076C124.745 48.076 124.797 48.0946 124.842 48.1317C124.886 48.1689 124.901 48.2209 124.886 48.2877L124.697 48.934C124.674 49.0083 124.671 49.064 124.686 49.1012C124.7 49.1309 124.723 49.142 124.752 49.1346C124.849 49.1197 124.934 49.1086 125.009 49.1012C125.09 49.0937 125.168 49.09 125.243 49.09C125.614 49.09 125.904 49.1532 126.112 49.2794C126.327 49.3983 126.476 49.5654 126.558 49.7809C126.647 49.9889 126.691 50.2229 126.691 50.4829C126.691 50.8394 126.61 51.2146 126.446 51.6083C126.283 51.9946 126.06 52.3623 125.778 52.7114C125.503 53.0532 125.191 53.3317 124.842 53.5472C124.5 53.7626 124.143 53.8703 123.772 53.8703C123.705 53.8703 123.631 53.848 123.549 53.8034C123.467 53.7589 123.389 53.7143 123.315 53.6697C123.248 53.6252 123.192 53.614 123.148 53.6363C123.111 53.6512 123.066 53.7292 123.014 53.8703L122.279 56.0432C122.227 56.1992 122.242 56.3143 122.323 56.3886C122.412 56.4703 122.55 56.5186 122.736 56.5334C122.81 56.5409 122.884 56.5557 122.958 56.578C123.033 56.6003 123.07 56.6412 123.07 56.7006C123.07 56.7452 123.036 56.7749 122.97 56.7897C122.903 56.812 122.828 56.8232 122.747 56.8232C122.635 56.8232 122.52 56.8194 122.401 56.812C122.282 56.812 122.171 56.812 122.067 56.812C121.97 56.812 121.889 56.8157 121.822 56.8232C121.636 56.8454 121.458 56.864 121.287 56.8789C121.109 56.8937 120.919 56.9012 120.719 56.9012ZM123.984 53.4914C124.154 53.4914 124.348 53.3986 124.563 53.2129C124.778 53.0197 124.983 52.7746 125.176 52.4774C125.376 52.1803 125.54 51.8646 125.666 51.5303C125.8 51.196 125.867 50.8803 125.867 50.5832C125.867 50.1672 125.792 49.8849 125.644 49.7363C125.495 49.5877 125.287 49.5097 125.02 49.5023C124.953 49.5023 124.886 49.5023 124.819 49.5023C124.752 49.5023 124.678 49.5097 124.596 49.5246L123.571 52.5332C123.527 52.6669 123.501 52.7932 123.493 52.912C123.493 53.0234 123.508 53.12 123.538 53.2017C123.575 53.2983 123.627 53.3726 123.694 53.4246C123.768 53.4692 123.865 53.4914 123.984 53.4914ZM127.521 53.8703C127.461 53.8703 127.395 53.8443 127.32 53.7923C127.246 53.7477 127.183 53.6957 127.131 53.6363C127.086 53.5694 127.064 53.51 127.064 53.458C127.064 53.3317 127.079 53.224 127.109 53.1349C127.146 53.0457 127.183 52.9454 127.22 52.834L128.279 49.8589C128.293 49.8069 128.286 49.7734 128.256 49.7586C128.234 49.7363 128.204 49.7252 128.167 49.7252L127.721 49.7029C127.625 49.6954 127.565 49.6769 127.543 49.6472C127.528 49.61 127.521 49.5766 127.521 49.5469C127.521 49.532 127.539 49.506 127.577 49.4689C127.614 49.4243 127.658 49.3834 127.71 49.3463C127.77 49.3017 127.833 49.2794 127.9 49.2794H128.301C128.383 49.2794 128.438 49.2683 128.468 49.246C128.498 49.2163 128.531 49.1606 128.568 49.0789L128.836 48.5329C128.865 48.4734 128.921 48.4066 129.003 48.3323C129.085 48.2506 129.166 48.18 129.248 48.1206C129.337 48.0612 129.4 48.0314 129.437 48.0314C129.497 48.0314 129.534 48.0723 129.549 48.154C129.564 48.2357 129.556 48.3137 129.527 48.388L129.237 49.1346C129.222 49.1866 129.226 49.22 129.248 49.2349C129.278 49.2497 129.322 49.2572 129.382 49.2572C129.53 49.2572 129.683 49.2683 129.839 49.2906C129.995 49.3129 130.121 49.3314 130.217 49.3463C130.336 49.3686 130.407 49.3946 130.429 49.4243C130.459 49.4466 130.474 49.4763 130.474 49.5134C130.474 49.5283 130.459 49.5543 130.429 49.5914C130.399 49.6212 130.344 49.6397 130.262 49.6472C130.099 49.6546 129.943 49.6657 129.794 49.6806C129.645 49.688 129.489 49.6954 129.326 49.7029C129.207 49.7103 129.122 49.7289 129.07 49.7586C129.025 49.7883 128.995 49.8254 128.981 49.87L127.989 52.6112C127.959 52.7003 127.944 52.7783 127.944 52.8452C127.944 52.912 127.963 52.964 128 53.0012C128.045 53.0383 128.108 53.0569 128.189 53.0569C128.293 53.0569 128.405 53.0197 128.524 52.9454C128.643 52.8712 128.758 52.7857 128.869 52.6892C128.981 52.5926 129.073 52.5072 129.148 52.4329C129.229 52.3512 129.3 52.314 129.359 52.3214C129.419 52.3289 129.449 52.3549 129.449 52.3994C129.449 52.4514 129.43 52.5109 129.393 52.5777C129.356 52.6372 129.307 52.7003 129.248 52.7672C129.129 52.8934 129.003 53.0123 128.869 53.1237C128.743 53.2352 128.609 53.3392 128.468 53.4357C128.334 53.5249 128.204 53.6029 128.078 53.6697C127.959 53.7292 127.851 53.7774 127.755 53.8146C127.658 53.8517 127.58 53.8703 127.521 53.8703ZM129.46 56.9457C129.348 56.9457 129.237 56.9049 129.125 56.8232C129.014 56.7489 128.958 56.6337 128.958 56.4777C128.958 56.3737 128.981 56.2809 129.025 56.1992C129.07 56.1174 129.125 56.0506 129.192 55.9986C129.259 55.9466 129.326 55.9206 129.393 55.9206C129.467 55.9206 129.53 55.9392 129.582 55.9763C129.634 56.0209 129.686 56.0654 129.738 56.11C129.79 56.1546 129.842 56.1917 129.894 56.2214C129.946 56.2586 130.006 56.2772 130.073 56.2772C130.333 56.2772 130.604 56.11 130.886 55.7757C131.176 55.4489 131.443 55.0366 131.688 54.5389C131.859 54.1897 131.971 53.8072 132.023 53.3912C132.082 52.9677 132.112 52.5034 132.112 51.9983C132.112 51.4486 132.071 51.0103 131.989 50.6834C131.915 50.3566 131.826 50.1226 131.722 49.9814C131.625 49.8329 131.54 49.7586 131.465 49.7586C131.391 49.7586 131.309 49.8032 131.22 49.8923C131.139 49.974 131.061 50.0706 130.986 50.182C130.919 50.2934 130.871 50.3937 130.841 50.4829C130.834 50.52 130.808 50.5832 130.763 50.6723C130.719 50.7614 130.674 50.806 130.63 50.806C130.6 50.806 130.574 50.7763 130.552 50.7169C130.537 50.65 130.529 50.5757 130.529 50.494C130.529 50.3232 130.563 50.156 130.63 49.9926C130.704 49.8292 130.797 49.6806 130.908 49.5469C131.027 49.4132 131.153 49.3054 131.287 49.2237C131.421 49.142 131.551 49.1012 131.677 49.1012C131.855 49.1012 132.004 49.1643 132.123 49.2906C132.249 49.4169 132.349 49.5989 132.424 49.8366C132.528 50.156 132.621 50.5534 132.702 51.0289C132.784 51.4969 132.806 52.1023 132.769 52.8452C132.762 52.9789 132.773 53.042 132.803 53.0346C132.84 53.0272 132.884 52.9752 132.936 52.8786C133.181 52.4106 133.401 51.8683 133.594 51.2517C133.794 50.6352 133.895 49.9554 133.895 49.2126C133.895 49.1754 133.921 49.1309 133.973 49.0789C134.032 49.0269 134.077 49.0009 134.106 49.0009C134.136 49.0009 134.181 49.0232 134.24 49.0677C134.299 49.1049 134.351 49.1606 134.396 49.2349C134.448 49.3092 134.474 49.3909 134.474 49.48C134.474 49.9406 134.359 50.4829 134.129 51.1069C133.898 51.7309 133.575 52.392 133.159 53.0903C132.743 53.7886 132.26 54.4794 131.711 55.1629C131.451 55.4823 131.187 55.7757 130.919 56.0432C130.652 56.318 130.392 56.5372 130.139 56.7006C129.894 56.864 129.668 56.9457 129.46 56.9457ZM137.844 52.0429C137.703 52.0429 137.584 51.9872 137.488 51.8757C137.391 51.7569 137.343 51.6269 137.343 51.4857C137.343 51.352 137.376 51.2294 137.443 51.118C137.51 51.0066 137.595 50.9212 137.699 50.8617C137.811 50.7949 137.933 50.7614 138.067 50.7614C138.216 50.7614 138.335 50.8172 138.424 50.9286C138.52 51.04 138.569 51.17 138.569 51.3186C138.569 51.4523 138.535 51.5749 138.468 51.6863C138.409 51.7903 138.323 51.8757 138.212 51.9426C138.101 52.0094 137.978 52.0429 137.844 52.0429ZM141.57 53.8703C141.407 53.8703 141.266 53.822 141.147 53.7254C141.028 53.6363 140.968 53.5212 140.968 53.38C140.968 53.2092 141.009 53.0829 141.091 53.0012C141.165 52.912 141.228 52.8674 141.28 52.8674C141.332 52.8674 141.384 52.8897 141.436 52.9343C141.496 52.9714 141.559 53.0197 141.626 53.0792C141.708 53.1386 141.797 53.198 141.893 53.2574C141.997 53.3094 142.131 53.3354 142.294 53.3354C142.495 53.3354 142.655 53.2649 142.774 53.1237C142.892 52.9752 142.956 52.8192 142.963 52.6557C142.963 52.4923 142.933 52.3177 142.874 52.132C142.822 51.9389 142.744 51.7494 142.64 51.5637C142.543 51.3854 142.462 51.2183 142.395 51.0623C142.335 50.8989 142.306 50.7614 142.306 50.65C142.306 50.4346 142.361 50.234 142.473 50.0483C142.592 49.8552 142.733 49.688 142.896 49.5469C143.067 49.4057 143.234 49.298 143.398 49.2237C143.561 49.142 143.691 49.1012 143.788 49.1012C143.884 49.1012 143.981 49.1309 144.077 49.1903C144.174 49.2423 144.252 49.3054 144.311 49.3797C144.378 49.4466 144.412 49.506 144.412 49.558C144.412 49.6026 144.389 49.6583 144.345 49.7252C144.3 49.7846 144.248 49.8403 144.189 49.8923C144.129 49.9443 144.077 49.9703 144.033 49.9703C143.996 49.9703 143.958 49.9517 143.921 49.9146C143.884 49.8774 143.843 49.8366 143.799 49.792C143.754 49.7474 143.698 49.7066 143.632 49.6694C143.572 49.6323 143.49 49.6137 143.386 49.6137C143.268 49.6137 143.164 49.6657 143.074 49.7697C142.985 49.8663 142.941 49.9963 142.941 50.1597C142.941 50.2192 142.959 50.312 142.996 50.4383C143.041 50.5646 143.089 50.6946 143.141 50.8283C143.201 50.962 143.256 51.0809 143.308 51.1849C143.39 51.3334 143.464 51.5229 143.531 51.7532C143.606 51.976 143.643 52.1729 143.643 52.3437C143.643 52.5666 143.576 52.7709 143.442 52.9566C143.316 53.1423 143.149 53.3057 142.941 53.4469C142.733 53.5806 142.506 53.6846 142.261 53.7589C142.023 53.8332 141.793 53.8703 141.57 53.8703ZM147.417 53.9483C147.239 53.9483 147.098 53.9 146.994 53.8034C146.89 53.7143 146.797 53.5806 146.715 53.4023L146.292 52.2212C146.247 52.0949 146.18 51.9834 146.091 51.8869C146.009 51.7829 145.905 51.7309 145.779 51.7309C145.727 51.7309 145.671 51.7903 145.612 51.9092C145.56 52.0206 145.515 52.1172 145.478 52.1989C145.456 52.2509 145.419 52.34 145.367 52.4663C145.322 52.5852 145.27 52.7189 145.211 52.8674C145.151 53.016 145.099 53.1534 145.055 53.2797C145.01 53.3986 144.977 53.484 144.954 53.536C144.91 53.6549 144.873 53.7403 144.843 53.7923C144.813 53.8517 144.754 53.8814 144.665 53.8814C144.613 53.8814 144.55 53.8554 144.475 53.8034C144.408 53.7589 144.375 53.7032 144.375 53.6363C144.375 53.5992 144.382 53.5397 144.397 53.458C144.412 53.3763 144.434 53.2797 144.464 53.1683L146.325 47.3963C146.37 47.2552 146.399 47.1363 146.414 47.0397C146.429 46.9432 146.436 46.8503 146.436 46.7612C146.436 46.672 146.355 46.5977 146.191 46.5383C146.117 46.5086 146.05 46.4826 145.991 46.4603C145.931 46.4306 145.902 46.4046 145.902 46.3823C145.902 46.3526 145.905 46.3266 145.913 46.3043C145.928 46.282 145.946 46.2672 145.968 46.2597C146.05 46.2152 146.15 46.1706 146.269 46.126C146.396 46.0814 146.522 46.0369 146.648 45.9923C146.782 45.9477 146.901 45.9143 147.005 45.892C147.109 45.8623 147.183 45.8474 147.228 45.8474C147.265 45.8474 147.302 45.8512 147.339 45.8586C147.384 45.866 147.406 45.8994 147.406 45.9589C147.406 46.0183 147.402 46.0629 147.395 46.0926C147.395 46.1223 147.387 46.1632 147.372 46.2152L145.868 50.7949C145.838 50.8766 145.838 50.9137 145.868 50.9063C145.905 50.8989 145.939 50.8766 145.968 50.8394C146.221 50.4829 146.488 50.1746 146.771 49.9146C147.06 49.6546 147.35 49.454 147.64 49.3129C147.93 49.1643 148.197 49.09 148.442 49.09C148.591 49.09 148.736 49.1309 148.877 49.2126C149.025 49.2943 149.1 49.4206 149.1 49.5914C149.1 49.7846 149.018 49.9889 148.854 50.2043C148.691 50.4197 148.487 50.624 148.242 50.8172C148.004 51.0103 147.755 51.1812 147.495 51.3297C147.242 51.4709 147.02 51.5674 146.826 51.6194C146.76 51.6343 146.741 51.6752 146.771 51.742L147.283 52.9566C147.32 53.0309 147.369 53.1052 147.428 53.1794C147.495 53.2463 147.569 53.2797 147.651 53.2797C147.792 53.2797 147.933 53.2129 148.074 53.0792C148.216 52.9454 148.334 52.7969 148.431 52.6334C148.468 52.5666 148.498 52.5257 148.52 52.5109C148.55 52.496 148.58 52.4886 148.609 52.4886C148.624 52.4886 148.639 52.5034 148.654 52.5332C148.669 52.5629 148.676 52.5926 148.676 52.6223C148.676 52.7412 148.628 52.8749 148.531 53.0234C148.435 53.172 148.316 53.3169 148.175 53.458C148.034 53.5992 147.892 53.7143 147.751 53.8034C147.618 53.9 147.506 53.9483 147.417 53.9483ZM146.247 51.4523C146.477 51.4523 146.711 51.3966 146.949 51.2852C147.194 51.1737 147.421 51.0363 147.629 50.8729C147.837 50.7094 148.004 50.5423 148.13 50.3714C148.256 50.1932 148.32 50.0446 148.32 49.9257C148.32 49.8143 148.286 49.7289 148.219 49.6694C148.152 49.6026 148.052 49.5692 147.918 49.5692C147.762 49.5692 147.58 49.6397 147.372 49.7809C147.172 49.922 146.975 50.0966 146.782 50.3046C146.589 50.5052 146.429 50.6946 146.303 50.8729C146.176 51.0512 146.113 51.1812 146.113 51.2629C146.113 51.3074 146.124 51.352 146.147 51.3966C146.169 51.4337 146.202 51.4523 146.247 51.4523ZM150.986 54.4052C150.949 54.4052 150.915 54.3829 150.885 54.3383C150.856 54.3012 150.852 54.2677 150.874 54.238L155.354 46.4937C155.406 46.412 155.469 46.36 155.543 46.3377C155.625 46.3154 155.714 46.3043 155.811 46.3043C155.848 46.3043 155.874 46.3266 155.889 46.3712C155.911 46.4157 155.911 46.4566 155.889 46.4937L151.409 54.238C151.365 54.3123 151.305 54.3569 151.231 54.3717C151.157 54.394 151.075 54.4052 150.986 54.4052ZM157.912 53.8814C157.778 53.8814 157.637 53.8294 157.488 53.7254C157.347 53.6289 157.225 53.4952 157.121 53.3243C157.024 53.146 156.976 52.9417 156.976 52.7114C156.983 52.444 157.028 52.1506 157.109 51.8312C157.191 51.5043 157.31 51.1812 157.466 50.8617C157.622 50.5423 157.815 50.2489 158.045 49.9814C158.283 49.714 158.554 49.5023 158.859 49.3463C159.163 49.1829 159.505 49.1012 159.884 49.1012C160.085 49.1012 160.237 49.1383 160.341 49.2126C160.445 49.2794 160.497 49.3612 160.497 49.4577C160.497 49.5766 160.46 49.6992 160.385 49.8254C160.319 49.9443 160.244 50.0037 160.163 50.0037C160.103 50.0037 160.051 49.9777 160.007 49.9257C159.969 49.8737 159.932 49.8106 159.895 49.7363C159.851 49.6546 159.795 49.5803 159.728 49.5134C159.661 49.4392 159.565 49.402 159.438 49.402C159.26 49.402 159.074 49.5097 158.881 49.7252C158.688 49.9406 158.506 50.2154 158.335 50.5497C158.172 50.884 158.038 51.2369 157.934 51.6083C157.83 51.9797 157.778 52.3177 157.778 52.6223C157.778 52.8674 157.826 53.0346 157.923 53.1237C158.019 53.2129 158.149 53.2574 158.313 53.2574C158.551 53.2574 158.74 53.2129 158.881 53.1237C159.022 53.0272 159.163 52.912 159.305 52.7783C159.357 52.7263 159.394 52.6892 159.416 52.6669C159.446 52.6446 159.483 52.6334 159.527 52.6334C159.587 52.6334 159.617 52.6817 159.617 52.7783C159.617 52.8377 159.568 52.9269 159.472 53.0457C159.383 53.1646 159.256 53.2909 159.093 53.4246C158.937 53.5509 158.755 53.6586 158.547 53.7477C158.346 53.8369 158.135 53.8814 157.912 53.8814ZM162.853 54.0932C162.668 54.0932 162.497 54.0337 162.341 53.9149C162.185 53.796 162.036 53.6697 161.895 53.536C161.784 53.432 161.68 53.3392 161.583 53.2574C161.494 53.1757 161.412 53.1349 161.338 53.1349C161.115 53.1349 160.94 53.2017 160.814 53.3354C160.695 53.4617 160.636 53.6103 160.636 53.7812C160.636 53.8554 160.614 53.9 160.569 53.9149C160.532 53.9297 160.498 53.9372 160.469 53.9372C160.446 53.9372 160.417 53.9074 160.38 53.848C160.342 53.7886 160.32 53.7217 160.313 53.6474C160.305 53.5657 160.32 53.4729 160.357 53.3689C160.402 53.2574 160.476 53.1534 160.58 53.0569L163.789 49.948L164.046 49.8589C163.971 49.9629 163.904 50.0409 163.845 50.0929C163.786 50.1374 163.708 50.1597 163.611 50.1597C163.5 50.1597 163.384 50.1374 163.266 50.0929C163.154 50.0409 163.035 49.9852 162.909 49.9257C162.768 49.8514 162.619 49.7846 162.463 49.7252C162.307 49.6657 162.14 49.636 161.962 49.636C161.828 49.636 161.706 49.6917 161.594 49.8032C161.483 49.9072 161.427 50.0149 161.427 50.1263C161.427 50.1783 161.434 50.2414 161.449 50.3157C161.464 50.39 161.494 50.4606 161.538 50.5274C161.583 50.6017 161.583 50.6686 161.538 50.728C161.486 50.78 161.405 50.8357 161.293 50.8952C161.189 50.9472 161.119 50.9732 161.082 50.9732C161.044 50.9732 160.996 50.9397 160.937 50.8729C160.877 50.806 160.848 50.7132 160.848 50.5943C160.848 50.3937 160.896 50.2229 160.992 50.0817C161.089 49.9332 161.226 49.7772 161.405 49.6137C161.494 49.532 161.605 49.454 161.739 49.3797C161.873 49.298 162.006 49.2312 162.14 49.1792C162.274 49.1272 162.382 49.1012 162.463 49.1012C162.59 49.1012 162.712 49.1197 162.831 49.1569C162.957 49.194 163.08 49.2349 163.199 49.2794C163.332 49.3314 163.459 49.3797 163.578 49.4243C163.696 49.4689 163.804 49.4912 163.901 49.4912C164.012 49.4912 164.101 49.4726 164.168 49.4354C164.242 49.3983 164.32 49.3389 164.402 49.2572C164.439 49.22 164.491 49.1792 164.558 49.1346C164.625 49.0826 164.684 49.0566 164.736 49.0566C164.759 49.0566 164.781 49.0714 164.803 49.1012C164.826 49.1234 164.837 49.1532 164.837 49.1903C164.837 49.2423 164.803 49.324 164.736 49.4354C164.67 49.5394 164.584 49.6434 164.48 49.7474L161.304 52.8786L161.137 52.8006C161.226 52.7189 161.301 52.6706 161.36 52.6557C161.427 52.6334 161.505 52.6223 161.594 52.6223C161.765 52.6223 161.921 52.6706 162.062 52.7672C162.203 52.8637 162.344 52.9714 162.486 53.0903C162.612 53.1943 162.734 53.2909 162.853 53.38C162.98 53.4692 163.106 53.5137 163.232 53.5137C163.403 53.5137 163.526 53.4617 163.6 53.3577C163.674 53.2463 163.722 53.1089 163.745 52.9454C163.767 52.7746 163.778 52.6074 163.778 52.444C163.778 52.3103 163.789 52.2249 163.812 52.1877C163.834 52.1432 163.878 52.1209 163.945 52.1209C164.027 52.1209 164.109 52.1729 164.19 52.2769C164.272 52.3734 164.313 52.5109 164.313 52.6892C164.313 52.8452 164.257 53.0049 164.146 53.1683C164.034 53.3317 163.897 53.484 163.734 53.6252C163.57 53.7663 163.407 53.8777 163.243 53.9594C163.087 54.0486 162.957 54.0932 162.853 54.0932Z" fill="#5B7180"/>
</g>
<defs>
<clipPath id="clip0_67_2">
<rect width="260.02" height="74.2857" fill="white"/>
</clipPath>
</defs>
</svg>
