<svg width="261" height="75" viewBox="0 0 261 75" fill="none" xmlns="http://www.w3.org/2000/svg">
<g clip-path="url(#clip0_64_605)">
<path d="M31.582 63.1429C45.9414 63.1429 57.582 51.5023 57.582 37.1429C57.582 22.7834 45.9414 11.1429 31.582 11.1429C17.2226 11.1429 5.58203 22.7834 5.58203 37.1429C5.58203 51.5023 17.2226 63.1429 31.582 63.1429Z" fill="#003049"/>
<path d="M22.78 49.3429C22.5324 49.3429 22.3343 49.2809 22.1857 49.1571C22.0619 49.0581 22 48.9343 22 48.7857C22 48.4143 22.2724 48.1543 22.8171 48.0057C23.659 47.7829 24.2533 47.5229 24.6 47.2257C24.9714 46.9286 25.1571 46.3838 25.1571 45.5914V28.6914C25.1571 27.899 24.9962 27.3295 24.6743 26.9829C24.3524 26.6362 23.7457 26.3638 22.8543 26.1657C22.5324 26.0914 22.3095 25.9924 22.1857 25.8686C22.0619 25.72 22 25.559 22 25.3857C22 25.2371 22.0743 25.1133 22.2229 25.0143C22.3714 24.8905 22.5695 24.8286 22.8171 24.8286C23.4362 24.8286 24.0676 24.8409 24.7114 24.8657C25.3552 24.8905 25.9867 24.9276 26.6057 24.9771C27.2248 25.0019 27.819 25.0143 28.3886 25.0143C29.6762 25.0143 31.0505 25.0019 32.5114 24.9771C33.9724 24.9524 35.2724 24.9276 36.4114 24.9029C37.2038 24.9029 37.86 24.8657 38.38 24.7914C38.9 24.6924 39.2095 24.6429 39.3086 24.6429C39.4819 24.6429 39.6676 24.7048 39.8657 24.8286C40.0886 24.9276 40.2124 25.1009 40.2371 25.3486C40.3362 26.24 40.46 27.1067 40.6086 27.9486C40.7571 28.7905 40.8314 29.5333 40.8314 30.1771C40.8314 30.4 40.7819 30.5733 40.6829 30.6971C40.5838 30.8209 40.4724 30.8829 40.3486 30.8829C40.2248 30.8829 40.0886 30.8333 39.94 30.7343C39.8162 30.6352 39.7171 30.4867 39.6429 30.2886C39.3952 29.6695 39.1724 29.1371 38.9743 28.6914C38.7762 28.2457 38.5533 27.8867 38.3057 27.6143C38.0086 27.3419 37.6495 27.0819 37.2286 26.8343C36.8076 26.5867 36.2752 26.4629 35.6314 26.4629H32.8457C32.301 26.4629 31.8305 26.6114 31.4343 26.9086C31.0381 27.1809 30.84 27.5771 30.84 28.0971V35.1171C30.84 35.4143 30.9267 35.6371 31.1 35.7857C31.2733 35.9343 31.4962 36.0086 31.7686 36.0086H35.0371C35.681 36.0086 36.139 35.7981 36.4114 35.3771C36.7086 34.9314 36.9686 34.399 37.1914 33.78C37.3648 33.3095 37.6124 33.0743 37.9343 33.0743C38.0581 33.0743 38.1695 33.1486 38.2686 33.2971C38.3676 33.4209 38.4048 33.619 38.38 33.8914C38.3552 34.1886 38.3305 34.5105 38.3057 34.8571C38.281 35.2038 38.2562 35.5505 38.2314 35.8971C38.2314 36.2438 38.2314 36.5781 38.2314 36.9C38.2314 37.1971 38.2314 37.519 38.2314 37.8657C38.2562 38.2124 38.2686 38.559 38.2686 38.9057C38.2933 39.2524 38.3181 39.5867 38.3429 39.9086C38.3924 40.2552 38.38 40.5152 38.3057 40.6886C38.2314 40.8371 38.12 40.9114 37.9714 40.9114C37.5752 40.9114 37.2905 40.5895 37.1171 39.9457C36.8943 39.2029 36.6467 38.6333 36.3743 38.2371C36.1019 37.8409 35.7181 37.6429 35.2229 37.6429H31.7686C31.4714 37.6429 31.2362 37.7171 31.0629 37.8657C30.9143 37.9895 30.84 38.2 30.84 38.4971V45.5543C30.84 46.2971 31.001 46.8171 31.3229 47.1143C31.6448 47.4114 32.14 47.56 32.8086 47.56H36.0029C36.5476 47.56 37.0676 47.4981 37.5629 47.3743C38.0581 47.2505 38.479 47.04 38.8257 46.7429C39.2467 46.3962 39.6305 45.9629 39.9771 45.4429C40.3238 44.9229 40.6457 44.3657 40.9429 43.7714C41.0419 43.5981 41.141 43.4867 41.24 43.4371C41.3638 43.3629 41.5 43.3257 41.6486 43.3257C41.7724 43.3257 41.859 43.4 41.9086 43.5486C41.9829 43.6971 42.02 43.8581 42.02 44.0314C42.02 44.4524 41.9581 44.9229 41.8343 45.4429C41.7105 45.9629 41.5495 46.52 41.3514 47.1143C41.1781 47.6838 41.0048 48.2533 40.8314 48.8229C40.7819 48.9962 40.6705 49.12 40.4971 49.1943C40.3486 49.2686 40.1876 49.3057 40.0143 49.3057C39.6924 49.3057 39.0857 49.2933 38.1943 49.2686C37.3276 49.2686 36.3 49.2562 35.1114 49.2314C33.9229 49.2067 32.6971 49.1819 31.4343 49.1571C30.1714 49.1571 28.9952 49.1571 27.9057 49.1571C27.4105 49.1571 26.8657 49.1695 26.2714 49.1943C25.6771 49.219 25.0705 49.2438 24.4514 49.2686C23.8571 49.3181 23.3 49.3429 22.78 49.3429Z" fill="#FDF0D5"/>
<path d="M44.5803 19.1286C45.9137 19.1286 46.9946 18.0476 46.9946 16.7143C46.9946 15.3809 45.9137 14.3 44.5803 14.3C43.2469 14.3 42.166 15.3809 42.166 16.7143C42.166 18.0476 43.2469 19.1286 44.5803 19.1286Z" fill="#C1121F"/>
<path d="M71.5719 36.7636C71.4109 36.7636 71.2822 36.7233 71.1856 36.6429C71.1051 36.5785 71.0649 36.498 71.0649 36.4014C71.0649 36.16 71.2419 35.991 71.596 35.8944C72.1433 35.7496 72.5296 35.5806 72.7549 35.3874C72.9963 35.1943 73.117 34.8402 73.117 34.3251V23.3401C73.117 22.8251 73.0124 22.4549 72.8032 22.2296C72.5939 22.0042 72.1996 21.8272 71.6202 21.6984C71.4109 21.6501 71.2661 21.5858 71.1856 21.5053C71.1051 21.4087 71.0649 21.3041 71.0649 21.1914C71.0649 21.0949 71.1132 21.0144 71.2097 20.95C71.3063 20.8695 71.4351 20.8293 71.596 20.8293C71.9984 20.8293 72.4088 20.8373 72.8273 20.8534C73.2458 20.8695 73.6562 20.8937 74.0586 20.9259C74.461 20.9419 74.8473 20.95 75.2175 20.95C76.0544 20.95 76.9477 20.9419 77.8973 20.9259C78.8469 20.9098 79.6919 20.8937 80.4323 20.8776C80.9474 20.8776 81.3739 20.8534 81.7119 20.8051C82.0499 20.7408 82.2511 20.7086 82.3155 20.7086C82.4281 20.7086 82.5488 20.7488 82.6776 20.8293C82.8225 20.8937 82.9029 21.0063 82.919 21.1673C82.9834 21.7467 83.0639 22.31 83.1605 22.8573C83.257 23.4045 83.3053 23.8874 83.3053 24.3059C83.3053 24.4507 83.2731 24.5634 83.2087 24.6439C83.1444 24.7243 83.0719 24.7646 82.9915 24.7646C82.911 24.7646 82.8225 24.7324 82.7259 24.668C82.6454 24.6036 82.581 24.507 82.5327 24.3783C82.3718 23.9759 82.2269 23.6299 82.0982 23.3401C81.9694 23.0504 81.8246 22.817 81.6636 22.64C81.4705 22.4629 81.2371 22.2939 80.9635 22.133C80.6898 21.972 80.3438 21.8916 79.9253 21.8916H78.1146C77.7605 21.8916 77.4547 21.9881 77.1972 22.1813C76.9397 22.3583 76.8109 22.6159 76.8109 22.9539V27.5169C76.8109 27.71 76.8672 27.8549 76.9799 27.9514C77.0926 28.048 77.2374 28.0963 77.4145 28.0963H79.539C79.9575 28.0963 80.2553 27.9595 80.4323 27.6859C80.6255 27.3961 80.7945 27.0501 80.9393 26.6477C81.052 26.3419 81.2129 26.189 81.4222 26.189C81.5027 26.189 81.5751 26.2373 81.6395 26.3339C81.7038 26.4143 81.728 26.5431 81.7119 26.7201C81.6958 26.9133 81.6797 27.1225 81.6636 27.3479C81.6475 27.5732 81.6314 27.7985 81.6153 28.0239C81.6153 28.2492 81.6153 28.4665 81.6153 28.6757C81.6153 28.8689 81.6153 29.0781 81.6153 29.3034C81.6314 29.5288 81.6395 29.7541 81.6395 29.9794C81.6556 30.2048 81.6717 30.422 81.6877 30.6313C81.7199 30.8566 81.7119 31.0256 81.6636 31.1383C81.6153 31.2349 81.5429 31.2831 81.4463 31.2831C81.1888 31.2831 81.0037 31.0739 80.891 30.6554C80.7462 30.1726 80.5852 29.8024 80.4082 29.5449C80.2311 29.2873 79.9817 29.1586 79.6597 29.1586H77.4145C77.2213 29.1586 77.0684 29.2069 76.9557 29.3034C76.8592 29.3839 76.8109 29.5207 76.8109 29.7139V34.301C76.8109 34.7839 76.9155 35.1219 77.1247 35.315C77.334 35.5081 77.6559 35.6047 78.0905 35.6047H80.1667C80.5208 35.6047 80.8588 35.5645 81.1807 35.484C81.5027 35.4035 81.7763 35.2667 82.0016 35.0736C82.2752 34.8482 82.5247 34.5666 82.75 34.2286C82.9754 33.8906 83.1846 33.5284 83.3777 33.1421C83.4421 33.0295 83.5065 32.957 83.5709 32.9249C83.6514 32.8766 83.7399 32.8524 83.8365 32.8524C83.9169 32.8524 83.9733 32.9007 84.0055 32.9973C84.0537 33.0939 84.0779 33.1985 84.0779 33.3111C84.0779 33.5848 84.0377 33.8906 83.9572 34.2286C83.8767 34.5666 83.7721 34.9287 83.6433 35.315C83.5307 35.6852 83.418 36.0554 83.3053 36.4256C83.2731 36.5382 83.2007 36.6187 83.088 36.667C82.9915 36.7153 82.8868 36.7394 82.7742 36.7394C82.5649 36.7394 82.1706 36.7314 81.5912 36.7153C81.0278 36.7153 80.3599 36.7072 79.5873 36.6911C78.8147 36.675 78.018 36.6589 77.1972 36.6429C76.3763 36.6429 75.6118 36.6429 74.9036 36.6429C74.5817 36.6429 74.2276 36.6509 73.8413 36.667C73.455 36.6831 73.0607 36.6992 72.6583 36.7153C72.272 36.7475 71.9099 36.7636 71.5719 36.7636ZM89.5323 37.1499C89.4357 37.1499 89.3311 37.0452 89.2184 36.836C89.1219 36.6268 89.0092 36.3773 88.8804 36.0876C88.7517 35.7979 88.6149 35.4759 88.47 35.1219C88.3251 34.7517 88.1883 34.4217 88.0596 34.132C87.6572 33.1824 87.2387 32.2569 86.8041 31.3556C86.3696 30.4542 85.943 29.5368 85.5246 28.6033C85.3797 28.2492 85.2107 27.9514 85.0176 27.71C84.8244 27.4525 84.583 27.2754 84.2933 27.1789C84.1323 27.1145 84.0197 27.0501 83.9553 26.9857C83.8909 26.9052 83.8587 26.8006 83.8587 26.6719C83.8587 26.5431 83.9231 26.4626 84.0519 26.4304C84.1967 26.3982 84.3255 26.3821 84.4381 26.3821C84.8244 26.3821 85.1222 26.3982 85.3314 26.4304C85.5568 26.4465 85.774 26.4707 85.9833 26.5029C86.1925 26.5189 86.4742 26.527 86.8283 26.527C87.1663 26.527 87.464 26.5189 87.7216 26.5029C87.9952 26.4707 88.2688 26.4465 88.5424 26.4304C88.8321 26.3982 89.1621 26.3821 89.5323 26.3821C89.645 26.3821 89.7657 26.4063 89.8944 26.4546C90.0393 26.5029 90.1117 26.5833 90.1117 26.696C90.1117 26.8409 90.0554 26.9374 89.9427 26.9857C89.83 27.034 89.7013 27.0903 89.5564 27.1547C89.3955 27.2191 89.2587 27.3398 89.146 27.5169C89.0494 27.6939 89.0011 27.9192 89.0011 28.1929C89.0011 28.3377 89.0011 28.4745 89.0011 28.6033C89.0011 28.7159 89.0333 28.8367 89.0977 28.9654L90.7153 32.949C90.7314 32.949 90.7394 32.949 90.7394 32.949C90.7555 32.949 90.7716 32.949 90.7877 32.949L92.2121 29.1344C92.2765 28.9896 92.3168 28.8528 92.3329 28.724C92.349 28.5952 92.357 28.4745 92.357 28.3619C92.357 28.0721 92.2926 27.8307 92.1639 27.6376C92.0512 27.4283 91.858 27.2754 91.5844 27.1789C91.4396 27.1306 91.3108 27.0823 91.1981 27.034C91.1016 26.9696 91.0533 26.865 91.0533 26.7201C91.0533 26.6075 91.1177 26.527 91.2464 26.4787C91.3752 26.4304 91.4959 26.4063 91.6086 26.4063C92.0431 26.4224 92.365 26.4385 92.5743 26.4546C92.7996 26.4707 93.033 26.4787 93.2744 26.4787C93.5159 26.4787 93.7492 26.4707 93.9746 26.4546C94.1999 26.4385 94.5218 26.4224 94.9403 26.4063C95.053 26.4063 95.1737 26.4224 95.3024 26.4546C95.4473 26.4868 95.5197 26.5672 95.5197 26.696C95.5197 26.9213 95.3668 27.0903 95.061 27.203C94.7713 27.2996 94.4977 27.4847 94.2401 27.7583C93.9987 28.0158 93.7975 28.3297 93.6366 28.6999L91.7534 33.4319C91.7212 33.5445 91.6649 33.6813 91.5844 33.8423C91.52 34.0032 91.4476 34.1722 91.3671 34.3493C91.3028 34.5102 91.2384 34.6631 91.174 34.808C91.1096 34.9529 91.0452 35.0816 90.9809 35.1943C90.9326 35.3069 90.8521 35.492 90.7394 35.7496C90.6268 36.0071 90.5141 36.2646 90.4014 36.5221C90.2888 36.7797 90.1841 36.9889 90.0876 37.1499H89.5323ZM95.877 36.7153C95.5551 36.7153 95.3941 36.6026 95.3941 36.3773C95.3941 36.2485 95.4424 36.1519 95.539 36.0876C95.6355 36.0071 95.7723 35.9427 95.9494 35.8944C96.1908 35.8139 96.4001 35.7254 96.5771 35.6289C96.7702 35.5323 96.8668 35.3069 96.8668 34.9529V23.3643C96.8668 22.9136 96.8105 22.5354 96.6978 22.2296C96.5851 21.9077 96.3276 21.7065 95.9252 21.626C95.7482 21.5938 95.6597 21.4731 95.6597 21.2639C95.6597 21.0546 95.7401 20.9339 95.9011 20.9017C96.3035 20.8212 96.7381 20.7086 97.2048 20.5637C97.6877 20.4028 98.1464 20.2418 98.581 20.0809C99.0155 19.9038 99.3535 19.775 99.595 19.6946C99.7237 19.6463 99.8283 19.6221 99.9088 19.6221C100.005 19.6221 100.07 19.6543 100.102 19.7187C100.134 19.767 100.15 19.8314 100.15 19.9119C100.15 20.0406 100.126 20.2579 100.078 20.5637C100.046 20.8695 100.021 21.2075 100.005 21.5777L100.03 30.6071C100.03 30.8003 100.102 30.8969 100.247 30.8969C100.295 30.8969 100.351 30.8808 100.416 30.8486C100.496 30.8003 100.569 30.752 100.633 30.7037C101.229 30.1887 101.76 29.6656 102.227 29.1344C102.693 28.6033 103.007 28.217 103.168 27.9756C103.232 27.879 103.281 27.7985 103.313 27.7341C103.361 27.6698 103.385 27.6134 103.385 27.5651C103.385 27.4847 103.321 27.4042 103.192 27.3237C103.063 27.2271 102.87 27.1628 102.613 27.1306C102.42 27.0984 102.323 27.0099 102.323 26.865C102.323 26.7201 102.379 26.6316 102.492 26.5994C102.621 26.5511 102.742 26.527 102.854 26.527H104.037C104.327 26.527 104.705 26.5189 105.172 26.5029C105.639 26.4707 106.097 26.4304 106.548 26.3821C106.999 26.3339 107.321 26.3097 107.514 26.3097C107.691 26.3097 107.779 26.3982 107.779 26.5753C107.779 26.704 107.731 26.8167 107.635 26.9133C107.538 26.9938 107.401 27.0501 107.224 27.0823C106.95 27.1467 106.629 27.2593 106.258 27.4203C105.888 27.5812 105.518 27.7663 105.148 27.9756C104.874 28.1204 104.576 28.3055 104.255 28.5309C103.949 28.7401 103.643 28.9654 103.337 29.2069C103.047 29.4483 102.782 29.6817 102.54 29.907C102.46 29.9875 102.42 30.076 102.42 30.1726C102.42 30.2209 102.436 30.2691 102.468 30.3174C102.5 30.3496 102.532 30.3899 102.565 30.4381C102.951 30.9371 103.321 31.428 103.675 31.9109C104.029 32.3937 104.383 32.8605 104.737 33.3111C105.091 33.7457 105.454 34.1803 105.824 34.6149C106.097 34.9046 106.427 35.1701 106.814 35.4116C107.2 35.653 107.522 35.822 107.779 35.9186C107.908 35.9669 108.045 36.0232 108.19 36.0876C108.351 36.1519 108.431 36.2485 108.431 36.3773C108.431 36.6026 108.254 36.7153 107.9 36.7153C106.934 36.7153 105.985 36.6992 105.051 36.667C104.134 36.6509 103.273 36.6429 102.468 36.6429C102.146 36.6429 101.985 36.5302 101.985 36.3049C101.985 36.1761 102.033 36.0795 102.13 36.0151C102.227 35.9508 102.355 35.8864 102.516 35.822C102.661 35.7737 102.758 35.7174 102.806 35.653C102.87 35.5886 102.911 35.5162 102.927 35.4357C102.927 35.3713 102.894 35.2989 102.83 35.2184C102.782 35.1219 102.717 35.0172 102.637 34.9046L100.295 31.6694C100.247 31.6372 100.207 31.6211 100.174 31.6211C100.078 31.6372 100.03 31.6936 100.03 31.7901C100.03 32.0316 100.03 32.281 100.03 32.5386C100.03 32.7961 100.03 33.0456 100.03 33.287C100.03 33.5445 100.03 33.8262 100.03 34.132C100.03 34.4217 100.03 34.7034 100.03 34.977C100.03 35.2506 100.086 35.4518 100.199 35.5806C100.327 35.6932 100.512 35.7898 100.754 35.8703C100.883 35.9186 100.995 35.9829 101.092 36.0634C101.204 36.1278 101.261 36.2244 101.261 36.3531C101.261 36.4658 101.213 36.5543 101.116 36.6187C101.035 36.6831 100.939 36.7153 100.826 36.7153C100.504 36.7153 100.207 36.6992 99.933 36.667C99.6754 36.6509 99.426 36.6348 99.1845 36.6187C98.9431 36.6026 98.6775 36.5946 98.3878 36.5946C98.1142 36.5946 97.8406 36.6026 97.567 36.6187C97.3094 36.6348 97.0439 36.6509 96.7702 36.667C96.4966 36.6992 96.1989 36.7153 95.877 36.7153ZM111.302 36.9809C110.867 36.9809 110.465 36.8762 110.095 36.667C109.724 36.4578 109.427 36.1841 109.201 35.8461C108.992 35.5081 108.888 35.1379 108.888 34.7356C108.888 34.1883 109.057 33.7296 109.395 33.3594C109.749 32.9892 110.264 32.6593 110.94 32.3696L113.088 31.428C113.41 31.2831 113.603 31.1544 113.668 31.0417C113.748 30.929 113.789 30.7198 113.789 30.414L113.813 29.0379C113.829 28.5872 113.748 28.2331 113.571 27.9756C113.394 27.7019 113.129 27.5651 112.775 27.5651C112.565 27.5651 112.356 27.6134 112.147 27.71C111.938 27.7905 111.777 27.887 111.664 27.9997C111.616 28.0641 111.575 28.1446 111.543 28.2411C111.527 28.3216 111.519 28.4101 111.519 28.5067C111.519 28.6033 111.527 28.724 111.543 28.8689C111.559 28.9976 111.567 29.1103 111.567 29.2069C111.567 29.3034 111.439 29.4322 111.181 29.5931C110.924 29.738 110.626 29.8748 110.288 30.0036C109.95 30.1162 109.66 30.1726 109.419 30.1726C109.306 30.1726 109.201 30.1243 109.105 30.0277C109.024 29.9311 108.984 29.8104 108.984 29.6656C108.984 29.408 109.073 29.1586 109.25 28.9171C109.427 28.6596 109.716 28.3699 110.119 28.048C110.537 27.6939 110.996 27.38 111.495 27.1064C111.994 26.8328 112.485 26.6155 112.968 26.4546C113.467 26.2936 113.885 26.2131 114.223 26.2131C115.092 26.2131 115.784 26.4948 116.299 27.0581C116.814 27.6054 117.056 28.3377 117.024 29.2551L116.903 34.132C116.887 34.5022 116.951 34.816 117.096 35.0736C117.241 35.3311 117.418 35.4599 117.627 35.4599C117.933 35.4599 118.199 35.3552 118.424 35.146C118.472 35.0977 118.521 35.0736 118.569 35.0736C118.649 35.0736 118.714 35.0977 118.762 35.146C118.826 35.1943 118.859 35.2587 118.859 35.3391C118.859 35.5323 118.714 35.7818 118.424 36.0876C118.118 36.3773 117.796 36.5946 117.458 36.7394C117.12 36.9004 116.766 36.9809 116.396 36.9809C115.495 36.9809 114.746 36.5221 114.151 35.6047H114.102C113.571 36.0876 113.088 36.4336 112.654 36.6429C112.235 36.8682 111.785 36.9809 111.302 36.9809ZM112.75 35.4116C112.927 35.4116 113.072 35.3874 113.185 35.3391C113.298 35.2748 113.41 35.1782 113.523 35.0494C113.571 34.985 113.611 34.9046 113.644 34.808C113.676 34.6953 113.692 34.5666 113.692 34.4217L113.764 32.6834C113.764 32.5225 113.74 32.4179 113.692 32.3696C113.644 32.3213 113.587 32.2971 113.523 32.2971C113.491 32.2971 113.451 32.3052 113.402 32.3213C113.354 32.3374 113.298 32.3615 113.233 32.3937C112.766 32.619 112.42 32.8524 112.195 33.0939C111.97 33.3192 111.857 33.6894 111.857 34.2044C111.857 34.6712 111.954 34.9931 112.147 35.1701C112.34 35.3311 112.541 35.4116 112.75 35.4116Z" fill="#003049"/>
<path d="M122.088 43.5236C122.008 43.5236 121.944 43.4994 121.895 43.4511C121.831 43.4029 121.807 43.3385 121.823 43.258C121.839 43.1292 121.903 43.0246 122.016 42.9441C122.113 42.8798 122.225 42.8315 122.354 42.7993C122.853 42.6705 123.215 42.5418 123.44 42.413C123.666 42.2842 123.843 42.0267 123.972 41.6404L128.076 29.1103C128.124 28.9493 128.164 28.7964 128.197 28.6516C128.245 28.5067 128.253 28.394 128.221 28.3136C128.188 28.2331 128.076 28.217 127.883 28.2653C127.561 28.3458 127.279 28.4262 127.038 28.5067C126.812 28.5872 126.515 28.6918 126.144 28.8206C126.016 28.8689 125.879 28.8849 125.734 28.8689C125.605 28.8528 125.541 28.7562 125.541 28.5791C125.541 28.4182 125.605 28.2814 125.734 28.1687C125.879 28.056 126.024 27.9675 126.169 27.9031C126.426 27.8066 126.716 27.6778 127.038 27.5169C127.376 27.3398 127.85 27.1386 128.462 26.9133C128.575 26.865 128.679 26.7845 128.776 26.6719C128.873 26.5431 128.969 26.3178 129.066 25.9959C129.323 25.2233 129.661 24.6599 130.08 24.3059C130.498 23.9357 130.957 23.7506 131.456 23.7506C131.762 23.7506 131.971 23.8391 132.084 24.0161C132.196 24.1932 132.204 24.4909 132.108 24.9094L131.842 25.851C131.81 26.0119 131.794 26.1407 131.794 26.2373C131.81 26.3339 131.85 26.3741 131.915 26.358C132.124 26.3097 132.333 26.2695 132.542 26.2373C132.751 26.2051 132.977 26.189 133.218 26.189C134.071 26.189 134.788 26.3339 135.367 26.6236C135.946 26.8972 136.381 27.2835 136.671 27.7824C136.96 28.2814 137.105 28.8447 137.105 29.4724C137.105 30.3255 136.92 31.1946 136.55 32.0799C136.18 32.949 135.673 33.7618 135.029 34.5183C134.385 35.2587 133.645 35.8542 132.808 36.3049C131.987 36.7555 131.134 36.9809 130.249 36.9809C129.959 36.9809 129.701 36.9245 129.476 36.8119C129.251 36.6992 129.066 36.5946 128.921 36.498C128.712 36.337 128.551 36.2727 128.438 36.3049C128.341 36.337 128.245 36.506 128.148 36.8119L126.845 41.399C126.748 41.7048 126.788 41.9623 126.965 42.1716C127.158 42.3808 127.537 42.5579 128.1 42.7027C128.197 42.7188 128.293 42.759 128.39 42.8234C128.502 42.9039 128.559 43.0246 128.559 43.1856C128.559 43.266 128.502 43.3304 128.39 43.3787C128.293 43.4431 128.172 43.4753 128.028 43.4753C127.77 43.4753 127.44 43.4672 127.038 43.4511C126.635 43.435 126.249 43.4189 125.879 43.4029C125.525 43.4029 125.227 43.4109 124.986 43.427C124.583 43.427 124.108 43.4431 123.561 43.4753C123.014 43.5075 122.523 43.5236 122.088 43.5236ZM130.249 36.0634C130.554 36.0634 130.917 35.8944 131.335 35.5564C131.754 35.2184 132.164 34.7597 132.566 34.1803C132.985 33.5848 133.331 32.9168 133.605 32.1764C133.878 31.436 134.015 30.6635 134.015 29.8587C134.015 28.9896 133.838 28.3779 133.484 28.0239C133.13 27.6537 132.655 27.4686 132.059 27.4686C131.963 27.4686 131.858 27.4686 131.746 27.4686C131.649 27.4686 131.544 27.4847 131.432 27.5169L129.355 33.9871C129.275 34.2286 129.235 34.4619 129.235 34.6873C129.251 34.9126 129.299 35.1219 129.38 35.315C129.476 35.5403 129.573 35.7254 129.669 35.8703C129.782 35.999 129.975 36.0634 130.249 36.0634ZM140.848 37.005C140.413 37.005 139.954 36.8762 139.472 36.6187C138.989 36.3451 138.578 35.991 138.24 35.5564C137.902 35.1058 137.733 34.6068 137.733 34.0596C137.733 33.0617 137.918 32.0959 138.289 31.1624C138.659 30.2128 139.15 29.3678 139.761 28.6274C140.373 27.887 141.065 27.2996 141.838 26.865C142.626 26.4143 143.423 26.189 144.228 26.189C145.161 26.189 145.837 26.366 146.256 26.7201C146.674 27.0742 146.883 27.4927 146.883 27.9756C146.883 28.5228 146.698 28.9976 146.328 29.4C145.974 29.7863 145.507 30.1162 144.928 30.3899C144.365 30.6635 143.753 30.8888 143.093 31.0659C142.433 31.2429 141.805 31.3958 141.21 31.5246C141.129 31.5407 141.073 31.5648 141.041 31.597C141.009 31.6292 140.976 31.6855 140.944 31.766C140.912 31.8787 140.88 32.0074 140.848 32.1523C140.832 32.281 140.816 32.4098 140.799 32.5386C140.783 33.1019 140.928 33.5928 141.234 34.0113C141.556 34.4298 142.023 34.639 142.634 34.639C143.085 34.639 143.495 34.5263 143.866 34.301C144.252 34.0596 144.622 33.7457 144.976 33.3594C145.153 33.1824 145.29 33.0939 145.387 33.0939C145.548 33.0939 145.628 33.1743 145.628 33.3353C145.628 33.3836 145.62 33.4399 145.604 33.5043C145.604 33.5687 145.588 33.625 145.556 33.6733C145.25 34.2527 144.872 34.7999 144.421 35.315C143.97 35.8139 143.447 36.2244 142.852 36.5463C142.256 36.8521 141.588 37.005 140.848 37.005ZM141.379 30.6796C141.701 30.583 142.039 30.4703 142.393 30.3416C142.763 30.2128 143.101 30.0438 143.407 29.8346C143.713 29.6092 143.97 29.3356 144.179 29.0137C144.389 28.6918 144.509 28.3055 144.542 27.8549C144.542 27.6617 144.485 27.4847 144.373 27.3237C144.26 27.1467 144.091 27.0581 143.866 27.0581C143.576 27.0581 143.286 27.1628 142.996 27.372C142.723 27.5651 142.457 27.8307 142.2 28.1687C141.942 28.4906 141.725 28.8608 141.548 29.2793C141.387 29.6817 141.274 30.1001 141.21 30.5347C141.194 30.6635 141.25 30.7118 141.379 30.6796ZM150.236 36.9809C149.641 36.9809 149.094 36.836 148.595 36.5463C148.112 36.2405 147.718 35.8461 147.412 35.3633C147.122 34.8643 146.985 34.309 147.001 33.6974C147.017 32.9249 147.138 32.1684 147.363 31.428C147.589 30.6876 147.895 30.0036 148.281 29.3759C148.683 28.732 149.15 28.1768 149.681 27.71C150.212 27.2271 150.8 26.8569 151.444 26.5994C152.104 26.3258 152.804 26.189 153.544 26.189C154.156 26.189 154.655 26.3258 155.041 26.5994C155.427 26.873 155.62 27.2191 155.62 27.6376C155.62 27.9434 155.516 28.2492 155.306 28.555C155.097 28.8447 154.872 28.9896 154.63 28.9896C154.502 28.9896 154.389 28.9413 154.292 28.8447C154.196 28.7481 154.067 28.555 153.906 28.2653C153.745 27.9756 153.56 27.7341 153.351 27.541C153.158 27.3318 152.957 27.2271 152.747 27.2271C152.409 27.2271 152.071 27.38 151.733 27.6859C151.411 27.9917 151.114 28.4021 150.84 28.9171C150.583 29.4161 150.373 29.9714 150.212 30.583C150.051 31.1946 149.963 31.8143 149.947 32.442C149.931 33.0375 150.076 33.5043 150.381 33.8423C150.687 34.1642 151.106 34.3251 151.637 34.3251C152.071 34.3251 152.474 34.2286 152.844 34.0354C153.23 33.8262 153.56 33.5526 153.834 33.2146C153.898 33.118 153.971 33.0456 154.051 32.9973C154.148 32.949 154.228 32.9249 154.292 32.9249C154.453 32.9249 154.534 33.0134 154.534 33.1904C154.534 33.5767 154.405 33.9952 154.148 34.4459C153.89 34.8804 153.544 35.2909 153.109 35.6771C152.691 36.0634 152.232 36.3773 151.733 36.6187C151.234 36.8601 150.735 36.9809 150.236 36.9809ZM153.206 25.2716C153.045 25.2716 152.924 25.1911 152.844 25.0301C152.78 24.8692 152.699 24.6197 152.602 24.2817C152.538 24.0242 152.466 23.7586 152.385 23.485C152.305 23.1953 152.224 22.9056 152.144 22.6159C152.063 22.3261 151.991 22.0525 151.926 21.795C151.862 21.5214 151.814 21.2639 151.782 21.0224C151.717 20.7649 151.717 20.5396 151.782 20.3464C151.862 20.1533 152.015 20.0567 152.24 20.0567C152.482 20.0567 152.723 20.3062 152.965 20.8051C153.061 21.0305 153.182 21.296 153.327 21.6019C153.488 21.8916 153.665 22.2054 153.858 22.5434C153.922 22.64 154.019 22.64 154.148 22.5434C154.518 22.2054 154.88 21.8835 155.234 21.5777C155.604 21.2558 155.91 20.9902 156.151 20.781C156.425 20.5557 156.658 20.3786 156.852 20.2499C157.045 20.1211 157.19 20.0567 157.286 20.0567C157.463 20.0567 157.552 20.1533 157.552 20.3464C157.552 20.443 157.528 20.5476 157.479 20.6603C157.431 20.7729 157.351 20.9017 157.238 21.0466C156.948 21.3846 156.642 21.7387 156.32 22.1089C156.015 22.4629 155.701 22.8251 155.379 23.1953C155.057 23.5655 154.743 23.9276 154.437 24.2817C154.18 24.5714 153.946 24.8129 153.737 25.006C153.544 25.183 153.367 25.2716 153.206 25.2716ZM157.653 36.9809C157.267 36.9809 156.921 36.836 156.615 36.5463C156.326 36.2566 156.181 35.9669 156.181 35.6771C156.181 35.5967 156.189 35.5162 156.205 35.4357C156.221 35.3552 156.253 35.2667 156.301 35.1701C156.768 34.14 157.203 33.126 157.605 32.1281C158.008 31.1141 158.402 30.1484 158.788 29.231C158.82 29.1344 158.78 29.0861 158.667 29.0861C158.555 29.0861 158.41 29.1264 158.233 29.2069C158.056 29.2712 157.871 29.3598 157.678 29.4724C157.501 29.5851 157.323 29.6897 157.146 29.7863C156.937 29.915 156.784 29.9472 156.688 29.8829C156.591 29.8185 156.543 29.7219 156.543 29.5931C156.543 29.4805 156.647 29.3115 156.857 29.0861C157.082 28.8447 157.364 28.5872 157.702 28.3136C158.04 28.0239 158.41 27.7422 158.812 27.4686C159.215 27.1949 159.601 26.9535 159.971 26.7443C160.357 26.5189 160.679 26.358 160.937 26.2614C161.162 26.1649 161.396 26.1809 161.637 26.3097C161.895 26.4224 162.096 26.5833 162.241 26.7926C162.385 26.9857 162.418 27.1789 162.337 27.372L159.633 34.0354C159.617 34.0998 159.601 34.1722 159.585 34.2527C159.569 34.3171 159.561 34.3654 159.561 34.3976C159.561 34.4619 159.577 34.5102 159.609 34.5424C159.657 34.5746 159.698 34.5907 159.73 34.5907C159.875 34.5907 160.092 34.4941 160.382 34.301C160.687 34.1079 161.009 33.8825 161.347 33.625C161.685 33.3675 161.967 33.126 162.192 32.9007C162.241 32.8524 162.273 32.8283 162.289 32.8283C162.369 32.8283 162.442 32.8685 162.506 32.949C162.571 33.0134 162.603 33.0858 162.603 33.1663C162.603 33.456 162.426 33.8181 162.072 34.2527C161.734 34.6712 161.299 35.0897 160.768 35.5081C160.253 35.9266 159.714 36.2807 159.15 36.5704C158.603 36.844 158.104 36.9809 157.653 36.9809ZM162.072 24.4749C161.717 24.4749 161.42 24.338 161.178 24.0644C160.937 23.7747 160.816 23.4528 160.816 23.0987C160.816 22.5515 161.009 22.0686 161.396 21.6501C161.782 21.2317 162.265 21.0224 162.844 21.0224C163.23 21.0224 163.528 21.1834 163.737 21.5053C163.947 21.8111 164.051 22.141 164.051 22.4951C164.051 22.9941 163.858 23.4528 163.472 23.8713C163.086 24.2737 162.619 24.4749 162.072 24.4749ZM166.806 37.005C166.371 37.005 165.913 36.8762 165.43 36.6187C164.947 36.3451 164.537 35.991 164.199 35.5564C163.861 35.1058 163.692 34.6068 163.692 34.0596C163.692 33.0617 163.877 32.0959 164.247 31.1624C164.617 30.2128 165.108 29.3678 165.72 28.6274C166.331 27.887 167.023 27.2996 167.796 26.865C168.585 26.4143 169.381 26.189 170.186 26.189C171.12 26.189 171.796 26.366 172.214 26.7201C172.633 27.0742 172.842 27.4927 172.842 27.9756C172.842 28.5228 172.657 28.9976 172.286 29.4C171.932 29.7863 171.466 30.1162 170.886 30.3899C170.323 30.6635 169.711 30.8888 169.051 31.0659C168.391 31.2429 167.764 31.3958 167.168 31.5246C167.088 31.5407 167.031 31.5648 166.999 31.597C166.967 31.6292 166.935 31.6855 166.903 31.766C166.87 31.8787 166.838 32.0074 166.806 32.1523C166.79 32.281 166.774 32.4098 166.758 32.5386C166.742 33.1019 166.887 33.5928 167.192 34.0113C167.514 34.4298 167.981 34.639 168.593 34.639C169.043 34.639 169.454 34.5263 169.824 34.301C170.21 34.0596 170.58 33.7457 170.934 33.3594C171.112 33.1824 171.248 33.0939 171.345 33.0939C171.506 33.0939 171.586 33.1743 171.586 33.3353C171.586 33.3836 171.578 33.4399 171.562 33.5043C171.562 33.5687 171.546 33.625 171.514 33.6733C171.208 34.2527 170.83 34.7999 170.379 35.315C169.929 35.8139 169.405 36.2244 168.81 36.5463C168.214 36.8521 167.546 37.005 166.806 37.005ZM167.337 30.6796C167.659 30.583 167.997 30.4703 168.351 30.3416C168.721 30.2128 169.059 30.0438 169.365 29.8346C169.671 29.6092 169.929 29.3356 170.138 29.0137C170.347 28.6918 170.468 28.3055 170.5 27.8549C170.5 27.6617 170.444 27.4847 170.331 27.3237C170.218 27.1467 170.049 27.0581 169.824 27.0581C169.534 27.0581 169.244 27.1628 168.955 27.372C168.681 27.5651 168.416 27.8307 168.158 28.1687C167.901 28.4906 167.683 28.8608 167.506 29.2793C167.345 29.6817 167.233 30.1001 167.168 30.5347C167.152 30.6635 167.208 30.7118 167.337 30.6796Z" fill="#780000"/>
<path d="M76.437 51.5179H74.257V57.6429H72.912V51.5179H70.732V50.4129H76.437V51.5179ZM80.7681 53.8529C81.0215 53.8529 81.2415 53.8212 81.4281 53.7579C81.6181 53.6945 81.7731 53.6079 81.8931 53.4979C82.0165 53.3845 82.1081 53.2512 82.1681 53.0979C82.2281 52.9445 82.2581 52.7762 82.2581 52.5929C82.2581 52.2262 82.1365 51.9445 81.8931 51.7479C81.6531 51.5512 81.2848 51.4529 80.7881 51.4529H79.9281V53.8529H80.7681ZM84.2281 57.6429H83.0131C82.7831 57.6429 82.6165 57.5529 82.5131 57.3729L80.9931 55.0579C80.9365 54.9712 80.8731 54.9095 80.8031 54.8729C80.7365 54.8362 80.6365 54.8179 80.5031 54.8179H79.9281V57.6429H78.5831V50.4129H80.7881C81.2781 50.4129 81.6981 50.4645 82.0481 50.5679C82.4015 50.6679 82.6898 50.8095 82.9131 50.9929C83.1398 51.1762 83.3065 51.3962 83.4131 51.6529C83.5198 51.9062 83.5731 52.1862 83.5731 52.4929C83.5731 52.7362 83.5365 52.9662 83.4631 53.1829C83.3931 53.3995 83.2898 53.5962 83.1531 53.7729C83.0198 53.9495 82.8531 54.1045 82.6531 54.2379C82.4565 54.3712 82.2315 54.4762 81.9781 54.5529C82.0648 54.6029 82.1448 54.6629 82.2181 54.7329C82.2915 54.7995 82.3581 54.8795 82.4181 54.9729L84.2281 57.6429ZM90.0289 54.9129L89.1489 52.5079C89.1056 52.4012 89.0606 52.2745 89.0139 52.1279C88.9672 51.9812 88.9206 51.8229 88.8739 51.6529C88.8306 51.8229 88.7856 51.9829 88.7389 52.1329C88.6922 52.2795 88.6472 52.4079 88.6039 52.5179L87.7289 54.9129H90.0289ZM92.4039 57.6429H91.3639C91.2472 57.6429 91.1522 57.6145 91.0789 57.5579C91.0056 57.4979 90.9506 57.4245 90.9139 57.3379L90.3739 55.8629H87.3789L86.8389 57.3379C86.8122 57.4145 86.7606 57.4845 86.6839 57.5479C86.6072 57.6112 86.5122 57.6429 86.3989 57.6429H85.3489L88.1939 50.4129H89.5639L92.4039 57.6429ZM100.772 54.0279C100.772 54.5579 100.684 55.0445 100.507 55.4879C100.331 55.9312 100.082 56.3129 99.7623 56.6329C99.4423 56.9529 99.0573 57.2012 98.6073 57.3779C98.1573 57.5545 97.6573 57.6429 97.1073 57.6429H94.3523V50.4129H97.1073C97.6573 50.4129 98.1573 50.5029 98.6073 50.6829C99.0573 50.8595 99.4423 51.1079 99.7623 51.4279C100.082 51.7445 100.331 52.1245 100.507 52.5679C100.684 53.0112 100.772 53.4979 100.772 54.0279ZM99.3923 54.0279C99.3923 53.6312 99.3389 53.2762 99.2323 52.9629C99.1289 52.6462 98.9773 52.3795 98.7773 52.1629C98.5806 51.9429 98.3406 51.7745 98.0573 51.6579C97.7773 51.5412 97.4606 51.4829 97.1073 51.4829H95.7023V56.5729H97.1073C97.4606 56.5729 97.7773 56.5145 98.0573 56.3979C98.3406 56.2812 98.5806 56.1145 98.7773 55.8979C98.9773 55.6779 99.1289 55.4112 99.2323 55.0979C99.3389 54.7812 99.3923 54.4245 99.3923 54.0279ZM104.51 57.6429H103.16V50.4129H104.51V57.6429ZM112.288 55.9379C112.362 55.9379 112.427 55.9662 112.483 56.0229L113.013 56.5979C112.72 56.9612 112.358 57.2395 111.928 57.4329C111.502 57.6262 110.988 57.7229 110.388 57.7229C109.852 57.7229 109.368 57.6312 108.938 57.4479C108.512 57.2645 108.147 57.0095 107.843 56.6829C107.54 56.3562 107.307 55.9662 107.143 55.5129C106.983 55.0595 106.903 54.5645 106.903 54.0279C106.903 53.4845 106.99 52.9879 107.163 52.5379C107.337 52.0845 107.58 51.6945 107.893 51.3679C108.21 51.0412 108.587 50.7879 109.023 50.6079C109.46 50.4245 109.943 50.3329 110.473 50.3329C111 50.3329 111.467 50.4195 111.873 50.5929C112.283 50.7662 112.632 50.9929 112.918 51.2729L112.468 51.8979C112.442 51.9379 112.407 51.9729 112.363 52.0029C112.323 52.0329 112.267 52.0479 112.193 52.0479C112.143 52.0479 112.092 52.0345 112.038 52.0079C111.985 51.9779 111.927 51.9429 111.863 51.9029C111.8 51.8595 111.727 51.8129 111.643 51.7629C111.56 51.7129 111.463 51.6679 111.353 51.6279C111.243 51.5845 111.115 51.5495 110.968 51.5229C110.825 51.4929 110.658 51.4779 110.468 51.4779C110.145 51.4779 109.848 51.5362 109.578 51.6529C109.312 51.7662 109.082 51.9329 108.888 52.1529C108.695 52.3695 108.545 52.6362 108.438 52.9529C108.332 53.2662 108.278 53.6245 108.278 54.0279C108.278 54.4345 108.335 54.7962 108.448 55.1129C108.565 55.4295 108.722 55.6962 108.918 55.9129C109.115 56.1295 109.347 56.2962 109.613 56.4129C109.88 56.5262 110.167 56.5829 110.473 56.5829C110.657 56.5829 110.822 56.5729 110.968 56.5529C111.118 56.5329 111.255 56.5012 111.378 56.4579C111.505 56.4145 111.623 56.3595 111.733 56.2929C111.847 56.2229 111.958 56.1379 112.068 56.0379C112.102 56.0079 112.137 55.9845 112.173 55.9679C112.21 55.9479 112.248 55.9379 112.288 55.9379ZM112.358 48.5229L111.153 49.8979H109.993L108.788 48.5229H109.683C109.733 48.5229 109.793 48.5295 109.863 48.5429C109.933 48.5562 109.997 48.5995 110.053 48.6729L110.498 49.2579C110.515 49.2745 110.528 49.2929 110.538 49.3129C110.552 49.3329 110.563 49.3512 110.573 49.3679C110.583 49.3512 110.593 49.3329 110.603 49.3129C110.617 49.2929 110.632 49.2745 110.648 49.2579L111.088 48.6779C111.145 48.6012 111.208 48.5562 111.278 48.5429C111.352 48.5295 111.413 48.5229 111.463 48.5229H112.358ZM121.235 50.4129V57.6429H120.545C120.438 57.6429 120.348 57.6262 120.275 57.5929C120.205 57.5562 120.136 57.4962 120.07 57.4129L116.295 52.5929C116.315 52.8129 116.325 53.0162 116.325 53.2029V57.6429H115.14V50.4129H115.845C115.901 50.4129 115.95 50.4162 115.99 50.4229C116.033 50.4262 116.07 50.4362 116.1 50.4529C116.133 50.4662 116.165 50.4879 116.195 50.5179C116.225 50.5445 116.258 50.5812 116.295 50.6279L120.085 55.4679C120.075 55.3512 120.066 55.2362 120.06 55.1229C120.053 55.0095 120.05 54.9045 120.05 54.8079V50.4129H121.235ZM125.395 51.4829V53.4879H127.925V54.5229H125.395V56.5679H128.605V57.6429H124.045V50.4129H128.605V51.4829H125.395ZM128.5 48.3379L126.88 49.7679C126.813 49.8279 126.75 49.8645 126.69 49.8779C126.63 49.8912 126.553 49.8979 126.46 49.8979H125.565L126.61 48.5429C126.643 48.4962 126.677 48.4595 126.71 48.4329C126.743 48.4029 126.78 48.3812 126.82 48.3679C126.86 48.3545 126.903 48.3462 126.95 48.3429C127 48.3395 127.058 48.3379 127.125 48.3379H128.5ZM136.813 53.8529C137.067 53.8529 137.287 53.8212 137.473 53.7579C137.663 53.6945 137.818 53.6079 137.938 53.4979C138.062 53.3845 138.153 53.2512 138.213 53.0979C138.273 52.9445 138.303 52.7762 138.303 52.5929C138.303 52.2262 138.182 51.9445 137.938 51.7479C137.698 51.5512 137.33 51.4529 136.833 51.4529H135.973V53.8529H136.813ZM140.273 57.6429H139.058C138.828 57.6429 138.662 57.5529 138.558 57.3729L137.038 55.0579C136.982 54.9712 136.918 54.9095 136.848 54.8729C136.782 54.8362 136.682 54.8179 136.548 54.8179H135.973V57.6429H134.628V50.4129H136.833C137.323 50.4129 137.743 50.4645 138.093 50.5679C138.447 50.6679 138.735 50.8095 138.958 50.9929C139.185 51.1762 139.352 51.3962 139.458 51.6529C139.565 51.9062 139.618 52.1862 139.618 52.4929C139.618 52.7362 139.582 52.9662 139.508 53.1829C139.438 53.3995 139.335 53.5962 139.198 53.7729C139.065 53.9495 138.898 54.1045 138.698 54.2379C138.502 54.3712 138.277 54.4762 138.023 54.5529C138.11 54.6029 138.19 54.6629 138.263 54.7329C138.337 54.7995 138.403 54.8795 138.463 54.9729L140.273 57.6429ZM143.604 51.4829V53.4879H146.134V54.5229H143.604V56.5679H146.814V57.6429H142.254V50.4129H146.814V51.4829H143.604ZM154.015 55.9379C154.088 55.9379 154.153 55.9662 154.21 56.0229L154.74 56.5979C154.447 56.9612 154.085 57.2395 153.655 57.4329C153.228 57.6262 152.715 57.7229 152.115 57.7229C151.578 57.7229 151.095 57.6312 150.665 57.4479C150.238 57.2645 149.873 57.0095 149.57 56.6829C149.267 56.3562 149.033 55.9662 148.87 55.5129C148.71 55.0595 148.63 54.5645 148.63 54.0279C148.63 53.4845 148.717 52.9879 148.89 52.5379C149.063 52.0845 149.307 51.6945 149.62 51.3679C149.937 51.0412 150.313 50.7879 150.75 50.6079C151.187 50.4245 151.67 50.3329 152.2 50.3329C152.727 50.3329 153.193 50.4195 153.6 50.5929C154.01 50.7662 154.358 50.9929 154.645 51.2729L154.195 51.8979C154.168 51.9379 154.133 51.9729 154.09 52.0029C154.05 52.0329 153.993 52.0479 153.92 52.0479C153.87 52.0479 153.818 52.0345 153.765 52.0079C153.712 51.9779 153.653 51.9429 153.59 51.9029C153.527 51.8595 153.453 51.8129 153.37 51.7629C153.287 51.7129 153.19 51.6679 153.08 51.6279C152.97 51.5845 152.842 51.5495 152.695 51.5229C152.552 51.4929 152.385 51.4779 152.195 51.4779C151.872 51.4779 151.575 51.5362 151.305 51.6529C151.038 51.7662 150.808 51.9329 150.615 52.1529C150.422 52.3695 150.272 52.6362 150.165 52.9529C150.058 53.2662 150.005 53.6245 150.005 54.0279C150.005 54.4345 150.062 54.7962 150.175 55.1129C150.292 55.4295 150.448 55.6962 150.645 55.9129C150.842 56.1295 151.073 56.2962 151.34 56.4129C151.607 56.5262 151.893 56.5829 152.2 56.5829C152.383 56.5829 152.548 56.5729 152.695 56.5529C152.845 56.5329 152.982 56.5012 153.105 56.4579C153.232 56.4145 153.35 56.3595 153.46 56.2929C153.573 56.2229 153.685 56.1379 153.795 56.0379C153.828 56.0079 153.863 55.9845 153.9 55.9679C153.937 55.9479 153.975 55.9379 154.015 55.9379ZM158.211 51.4829V53.4879H160.741V54.5229H158.211V56.5679H161.421V57.6429H156.861V50.4129H161.421V51.4829H158.211ZM166.163 54.0479C166.41 54.0479 166.625 54.0179 166.808 53.9579C166.992 53.8945 167.143 53.8062 167.263 53.6929C167.387 53.5762 167.478 53.4362 167.538 53.2729C167.598 53.1062 167.628 52.9212 167.628 52.7179C167.628 52.5245 167.598 52.3495 167.538 52.1929C167.478 52.0362 167.388 51.9029 167.268 51.7929C167.148 51.6829 166.997 51.5995 166.813 51.5429C166.63 51.4829 166.413 51.4529 166.163 51.4529H165.158V54.0479H166.163ZM166.163 50.4129C166.647 50.4129 167.065 50.4695 167.418 50.5829C167.772 50.6962 168.063 50.8545 168.293 51.0579C168.523 51.2612 168.693 51.5045 168.803 51.7879C168.917 52.0712 168.973 52.3812 168.973 52.7179C168.973 53.0679 168.915 53.3895 168.798 53.6829C168.682 53.9729 168.507 54.2229 168.273 54.4329C168.04 54.6429 167.747 54.8062 167.393 54.9229C167.043 55.0395 166.633 55.0979 166.163 55.0979H165.158V57.6429H163.813V50.4129H166.163ZM176.255 51.5179H174.075V57.6429H172.73V51.5179H170.55V50.4129H176.255V51.5179ZM181.506 54.8429V57.6429H180.166V54.8429L177.531 50.4129H178.716C178.832 50.4129 178.924 50.4412 178.991 50.4979C179.061 50.5545 179.119 50.6262 179.166 50.7129L180.486 53.1279C180.562 53.2712 180.629 53.4062 180.686 53.5329C180.746 53.6595 180.799 53.7862 180.846 53.9129C180.889 53.7862 180.939 53.6595 180.996 53.5329C181.052 53.4062 181.117 53.2712 181.191 53.1279L182.506 50.7129C182.542 50.6395 182.597 50.5712 182.671 50.5079C182.744 50.4445 182.837 50.4129 182.951 50.4129H184.141L181.506 54.8429ZM188.932 54.6679C188.932 54.5379 188.955 54.4162 189.002 54.3029C189.052 54.1862 189.118 54.0862 189.202 54.0029C189.288 53.9162 189.388 53.8495 189.502 53.8029C189.615 53.7529 189.737 53.7279 189.867 53.7279C190 53.7279 190.123 53.7529 190.237 53.8029C190.353 53.8495 190.453 53.9162 190.537 54.0029C190.623 54.0862 190.692 54.1862 190.742 54.3029C190.792 54.4162 190.817 54.5379 190.817 54.6679C190.817 54.7979 190.792 54.9195 190.742 55.0329C190.692 55.1429 190.623 55.2412 190.537 55.3279C190.453 55.4112 190.353 55.4779 190.237 55.5279C190.123 55.5745 190 55.5979 189.867 55.5979C189.737 55.5979 189.615 55.5745 189.502 55.5279C189.388 55.4779 189.288 55.4112 189.202 55.3279C189.118 55.2412 189.052 55.1429 189.002 55.0329C188.955 54.9195 188.932 54.7979 188.932 54.6679ZM200.732 51.7279C200.692 51.7979 200.649 51.8495 200.602 51.8829C200.559 51.9129 200.504 51.9279 200.437 51.9279C200.367 51.9279 200.291 51.9029 200.207 51.8529C200.127 51.7995 200.031 51.7412 199.917 51.6779C199.804 51.6145 199.671 51.5579 199.517 51.5079C199.367 51.4545 199.189 51.4279 198.982 51.4279C198.796 51.4279 198.632 51.4512 198.492 51.4979C198.352 51.5412 198.234 51.6029 198.137 51.6829C198.044 51.7629 197.974 51.8595 197.927 51.9729C197.881 52.0829 197.857 52.2045 197.857 52.3379C197.857 52.5079 197.904 52.6495 197.997 52.7629C198.094 52.8762 198.221 52.9729 198.377 53.0529C198.534 53.1329 198.712 53.2045 198.912 53.2679C199.112 53.3312 199.317 53.3995 199.527 53.4729C199.737 53.5429 199.942 53.6262 200.142 53.7229C200.342 53.8162 200.521 53.9362 200.677 54.0829C200.834 54.2262 200.959 54.4029 201.052 54.6129C201.149 54.8229 201.197 55.0779 201.197 55.3779C201.197 55.7045 201.141 56.0112 201.027 56.2979C200.917 56.5812 200.754 56.8295 200.537 57.0429C200.324 57.2529 200.062 57.4195 199.752 57.5429C199.442 57.6629 199.087 57.7229 198.687 57.7229C198.457 57.7229 198.231 57.6995 198.007 57.6529C197.784 57.6095 197.569 57.5462 197.362 57.4629C197.159 57.3795 196.967 57.2795 196.787 57.1629C196.607 57.0462 196.447 56.9162 196.307 56.7729L196.702 56.1279C196.736 56.0812 196.779 56.0429 196.832 56.0129C196.886 55.9795 196.942 55.9629 197.002 55.9629C197.086 55.9629 197.176 55.9979 197.272 56.0679C197.369 56.1345 197.484 56.2095 197.617 56.2929C197.751 56.3762 197.906 56.4529 198.082 56.5229C198.262 56.5895 198.477 56.6229 198.727 56.6229C199.111 56.6229 199.407 56.5329 199.617 56.3529C199.827 56.1695 199.932 55.9079 199.932 55.5679C199.932 55.3779 199.884 55.2229 199.787 55.1029C199.694 54.9829 199.569 54.8829 199.412 54.8029C199.256 54.7195 199.077 54.6495 198.877 54.5929C198.677 54.5362 198.474 54.4745 198.267 54.4079C198.061 54.3412 197.857 54.2612 197.657 54.1679C197.457 54.0745 197.279 53.9529 197.122 53.8029C196.966 53.6529 196.839 53.4662 196.742 53.2429C196.649 53.0162 196.602 52.7379 196.602 52.4079C196.602 52.1445 196.654 51.8879 196.757 51.6379C196.864 51.3879 197.017 51.1662 197.217 50.9729C197.417 50.7795 197.664 50.6245 197.957 50.5079C198.251 50.3912 198.587 50.3329 198.967 50.3329C199.394 50.3329 199.787 50.3995 200.147 50.5329C200.507 50.6662 200.814 50.8529 201.067 51.0929L200.732 51.7279ZM204.916 53.4429H205.231C205.357 53.4429 205.462 53.4262 205.546 53.3929C205.629 53.3562 205.701 53.2995 205.761 53.2229L207.756 50.6979C207.839 50.5912 207.926 50.5179 208.016 50.4779C208.109 50.4345 208.226 50.4129 208.366 50.4129H209.526L207.091 53.4179C206.947 53.6012 206.799 53.7312 206.646 53.8079C206.756 53.8479 206.854 53.9045 206.941 53.9779C207.031 54.0479 207.116 54.1412 207.196 54.2579L209.706 57.6429H208.521C208.361 57.6429 208.241 57.6212 208.161 57.5779C208.084 57.5312 208.019 57.4645 207.966 57.3779L205.921 54.7079C205.857 54.6179 205.784 54.5545 205.701 54.5179C205.617 54.4812 205.497 54.4629 205.341 54.4629H204.916V57.6429H203.571V50.4129H204.916V53.4429ZM215.923 57.6579C215.866 57.8112 215.774 57.9262 215.648 58.0029C215.524 58.0795 215.398 58.1179 215.268 58.1179H214.743L217.663 50.6479C217.716 50.5079 217.798 50.4012 217.908 50.3279C218.018 50.2512 218.146 50.2129 218.293 50.2129H218.823L215.923 57.6579ZM229.713 55.9379C229.786 55.9379 229.851 55.9662 229.908 56.0229L230.438 56.5979C230.144 56.9612 229.783 57.2395 229.353 57.4329C228.926 57.6262 228.413 57.7229 227.813 57.7229C227.276 57.7229 226.793 57.6312 226.363 57.4479C225.936 57.2645 225.571 57.0095 225.268 56.6829C224.964 56.3562 224.731 55.9662 224.568 55.5129C224.408 55.0595 224.328 54.5645 224.328 54.0279C224.328 53.4845 224.414 52.9879 224.588 52.5379C224.761 52.0845 225.004 51.6945 225.318 51.3679C225.634 51.0412 226.011 50.7879 226.448 50.6079C226.884 50.4245 227.368 50.3329 227.898 50.3329C228.424 50.3329 228.891 50.4195 229.298 50.5929C229.708 50.7662 230.056 50.9929 230.343 51.2729L229.893 51.8979C229.866 51.9379 229.831 51.9729 229.788 52.0029C229.748 52.0329 229.691 52.0479 229.618 52.0479C229.568 52.0479 229.516 52.0345 229.463 52.0079C229.409 51.9779 229.351 51.9429 229.288 51.9029C229.224 51.8595 229.151 51.8129 229.068 51.7629C228.984 51.7129 228.888 51.6679 228.778 51.6279C228.668 51.5845 228.539 51.5495 228.393 51.5229C228.249 51.4929 228.083 51.4779 227.893 51.4779C227.569 51.4779 227.273 51.5362 227.003 51.6529C226.736 51.7662 226.506 51.9329 226.313 52.1529C226.119 52.3695 225.969 52.6362 225.863 52.9529C225.756 53.2662 225.703 53.6245 225.703 54.0279C225.703 54.4345 225.759 54.7962 225.873 55.1129C225.989 55.4295 226.146 55.6962 226.343 55.9129C226.539 56.1295 226.771 56.2962 227.038 56.4129C227.304 56.5262 227.591 56.5829 227.898 56.5829C228.081 56.5829 228.246 56.5729 228.393 56.5529C228.543 56.5329 228.679 56.5012 228.803 56.4579C228.929 56.4145 229.048 56.3595 229.158 56.2929C229.271 56.2229 229.383 56.1379 229.493 56.0379C229.526 56.0079 229.561 55.9845 229.598 55.9679C229.634 55.9479 229.673 55.9379 229.713 55.9379ZM237.539 50.9079C237.539 51.0612 237.496 51.2012 237.409 51.3279L233.699 56.5679H237.454V57.6429H231.954V57.1129C231.954 57.0462 231.966 56.9829 231.989 56.9229C232.012 56.8595 232.042 56.8012 232.079 56.7479L235.799 51.4829H232.189V50.4129H237.539V50.9079Z" fill="#5B7180"/>
</g>
<defs>
<clipPath id="clip0_64_605">
<rect width="260.02" height="74.2857" fill="white"/>
</clipPath>
</defs>
</svg>
