<svg width="52" height="52" viewBox="0 0 52 52" fill="none" xmlns="http://www.w3.org/2000/svg">
<path d="M26 52C40.3594 52 52 40.3594 52 26C52 11.6406 40.3594 0 26 0C11.6406 0 0 11.6406 0 26C0 40.3594 11.6406 52 26 52Z" fill="#003049"/>
<path d="M17.198 38.2C16.9503 38.2 16.7523 38.1381 16.6037 38.0143C16.4799 37.9152 16.418 37.7914 16.418 37.6429C16.418 37.2714 16.6903 37.0114 17.2351 36.8629C18.077 36.64 18.6713 36.38 19.018 36.0829C19.3894 35.7857 19.5751 35.241 19.5751 34.4486V17.5486C19.5751 16.7562 19.4142 16.1867 19.0923 15.84C18.7703 15.4933 18.1637 15.221 17.2723 15.0229C16.9503 14.9486 16.7275 14.8495 16.6037 14.7257C16.4799 14.5771 16.418 14.4162 16.418 14.2429C16.418 14.0943 16.4923 13.9705 16.6408 13.8714C16.7894 13.7476 16.9875 13.6857 17.2351 13.6857C17.8542 13.6857 18.4856 13.6981 19.1294 13.7229C19.7732 13.7476 20.4046 13.7848 21.0237 13.8343C21.6427 13.859 22.237 13.8714 22.8065 13.8714C24.0942 13.8714 25.4684 13.859 26.9294 13.8343C28.3904 13.8095 29.6904 13.7848 30.8294 13.76C31.6218 13.76 32.278 13.7229 32.798 13.6486C33.318 13.5495 33.6275 13.5 33.7265 13.5C33.8999 13.5 34.0856 13.5619 34.2837 13.6857C34.5065 13.7848 34.6303 13.9581 34.6551 14.2057C34.7542 15.0971 34.878 15.9638 35.0265 16.8057C35.1751 17.6476 35.2494 18.3905 35.2494 19.0343C35.2494 19.2571 35.1999 19.4305 35.1008 19.5543C35.0018 19.6781 34.8903 19.74 34.7665 19.74C34.6427 19.74 34.5065 19.6905 34.358 19.5914C34.2342 19.4924 34.1351 19.3438 34.0608 19.1457C33.8132 18.5267 33.5903 17.9943 33.3923 17.5486C33.1942 17.1029 32.9713 16.7438 32.7237 16.4714C32.4265 16.199 32.0675 15.939 31.6465 15.6914C31.2256 15.4438 30.6932 15.32 30.0494 15.32H27.2637C26.7189 15.32 26.2484 15.4686 25.8523 15.7657C25.4561 16.0381 25.258 16.4343 25.258 16.9543V23.9743C25.258 24.2714 25.3446 24.4943 25.518 24.6429C25.6913 24.7914 25.9142 24.8657 26.1865 24.8657H29.4551C30.0989 24.8657 30.557 24.6552 30.8294 24.2343C31.1265 23.7886 31.3865 23.2562 31.6094 22.6371C31.7827 22.1667 32.0304 21.9314 32.3523 21.9314C32.4761 21.9314 32.5875 22.0057 32.6865 22.1543C32.7856 22.2781 32.8227 22.4762 32.798 22.7486C32.7732 23.0457 32.7484 23.3676 32.7237 23.7143C32.6989 24.061 32.6742 24.4076 32.6494 24.7543C32.6494 25.101 32.6494 25.4352 32.6494 25.7571C32.6494 26.0543 32.6494 26.3762 32.6494 26.7229C32.6742 27.0695 32.6865 27.4162 32.6865 27.7629C32.7113 28.1095 32.7361 28.4438 32.7608 28.7657C32.8104 29.1124 32.798 29.3724 32.7237 29.5457C32.6494 29.6943 32.538 29.7686 32.3894 29.7686C31.9932 29.7686 31.7084 29.4467 31.5351 28.8029C31.3123 28.06 31.0646 27.4905 30.7923 27.0943C30.5199 26.6981 30.1361 26.5 29.6408 26.5H26.1865C25.8894 26.5 25.6542 26.5743 25.4808 26.7229C25.3323 26.8467 25.258 27.0571 25.258 27.3543V34.4114C25.258 35.1543 25.4189 35.6743 25.7408 35.9714C26.0627 36.2686 26.558 36.4171 27.2265 36.4171H30.4208C30.9656 36.4171 31.4856 36.3552 31.9808 36.2314C32.4761 36.1076 32.897 35.8971 33.2437 35.6C33.6646 35.2533 34.0484 34.82 34.3951 34.3C34.7418 33.78 35.0637 33.2229 35.3608 32.6286C35.4599 32.4552 35.5589 32.3438 35.658 32.2943C35.7818 32.22 35.918 32.1829 36.0665 32.1829C36.1903 32.1829 36.277 32.2571 36.3265 32.4057C36.4008 32.5543 36.438 32.7152 36.438 32.8886C36.438 33.3095 36.3761 33.78 36.2523 34.3C36.1284 34.82 35.9675 35.3771 35.7694 35.9714C35.5961 36.541 35.4227 37.1105 35.2494 37.68C35.1999 37.8533 35.0884 37.9771 34.9151 38.0514C34.7665 38.1257 34.6056 38.1629 34.4323 38.1629C34.1103 38.1629 33.5037 38.1505 32.6123 38.1257C31.7456 38.1257 30.718 38.1133 29.5294 38.0886C28.3408 38.0638 27.1151 38.039 25.8523 38.0143C24.5894 38.0143 23.4132 38.0143 22.3237 38.0143C21.8284 38.0143 21.2837 38.0267 20.6894 38.0514C20.0951 38.0762 19.4884 38.101 18.8694 38.1257C18.2751 38.1752 17.718 38.2 17.198 38.2Z" fill="#FDF0D5"/>
<path d="M39.9297 8.35715C41.8627 8.35715 43.4297 6.79014 43.4297 4.85715C43.4297 2.92415 41.8627 1.35715 39.9297 1.35715C37.9967 1.35715 36.4297 2.92415 36.4297 4.85715C36.4297 6.79014 37.9967 8.35715 39.9297 8.35715Z" fill="#C1121F"/>
</svg>
